<svg xmlns="http://www.w3.org/2000/svg" width="190" height="53" viewBox="0 0 190 53">
  <g fill="none" fill-rule="evenodd">
    <path fill="#FFFFFF" d="M25.637012,23.918 C25.6610121,23.8939999 25.676012,23.8640002 25.682012,23.828 C25.6880121,23.7919998 25.7030119,23.7560002 25.727012,23.72 C24.3110049,23.3359981 23.2670154,22.7660038 22.595012,22.01 C21.9230087,21.2539962 21.5810121,20.4320044 21.569012,19.544 C21.557012,19.0279974 21.6410111,18.5600021 21.821012,18.14 C22.0010129,17.7199979 22.2410105,17.3600015 22.541012,17.06 C22.8410135,16.7599985 23.18901,16.5230009 23.585012,16.349 C23.981014,16.1749991 24.3950099,16.0700002 24.827012,16.034 C25.1630137,16.0099999 25.4960104,16.0459995 25.826012,16.142 C26.1560137,16.2380005 26.4380109,16.3939989 26.672012,16.61 C26.9060132,16.8260011 27.0680116,17.0929984 27.158012,17.411 C27.2480125,17.7290016 27.2210127,18.0979979 27.077012,18.518 C26.9930116,18.2419986 26.8700128,18.0440006 26.708012,17.924 C26.5460112,17.8039994 26.3090136,17.744 25.997012,17.744 C25.793011,17.744 25.598013,17.7919995 25.412012,17.888 C25.2260111,17.9840005 25.0580128,18.1129992 24.908012,18.275 C24.7580113,18.4370008 24.6350125,18.619999 24.539012,18.824 C24.4430115,19.028001 24.3830121,19.2379989 24.359012,19.454 C24.3230118,20.0660031 24.4820103,20.6269975 24.836012,21.137 C25.1900138,21.6470025 25.6910088,22.0699983 26.339012,22.406 C26.6270135,21.8179971 26.97501,21.2000032 27.383012,20.552 C27.7910141,19.9039968 28.2860091,19.3040028 28.868012,18.752 C29.4500149,18.1999972 30.1370081,17.7380019 30.929012,17.366 C31.721016,16.9939981 32.6390068,16.7900002 33.683012,16.754 C33.8030126,16.754 33.968011,16.7599999 34.178012,16.772 C34.3880131,16.7840001 34.6160108,16.8169997 34.862012,16.871 C35.1080133,16.9250003 35.3600107,17.0059995 35.618012,17.114 C35.8760133,17.2220005 36.110011,17.3689991 36.320012,17.555 C36.5300131,17.7410009 36.7040113,17.9749986 36.842012,18.257 C36.9800127,18.5390014 37.049012,18.8719981 37.049012,19.256 C37.049012,19.8440029 36.8810137,20.4019974 36.545012,20.93 C36.2090103,21.4580026 35.7590148,21.9319979 35.195012,22.352 C34.6310092,22.7720021 33.9830157,23.1289985 33.251012,23.423 C32.5190084,23.7170015 31.757016,23.9239994 30.965012,24.044 C30.5090097,24.9560046 29.9990148,25.8709954 29.435012,26.789 C28.8710092,27.7070046 28.2110158,28.561996 27.455012,29.354 C28.1030153,29.5820011 28.7480088,29.7649993 29.390012,29.903 C30.0320152,30.0410007 30.6620089,30.0950002 31.280012,30.065 C31.8980151,30.0349998 32.4980091,29.9030012 33.080012,29.669 C33.6620149,29.4349988 34.2110094,29.0600026 34.727012,28.544 C34.6550117,29.4440045 34.5020132,30.196997 34.268012,30.803 C34.0340109,31.409003 33.7580136,31.9039981 33.440012,32.288 C33.1220104,32.6720019 32.7770139,32.962999 32.405012,33.161 C32.0330102,33.359001 31.6700138,33.4969996 31.316012,33.575 C30.9620103,33.6530004 30.6380135,33.692 30.344012,33.692 C30.0500106,33.692 29.8250128,33.6860001 29.669012,33.674 C28.673007,33.6139997 27.7910159,33.3620022 27.023012,32.918 C26.2550082,32.4739978 25.5470153,31.9580029 24.899012,31.37 C24.1790084,31.766002 23.3990162,32.0719989 22.559012,32.288 C21.7190078,32.5040011 20.7890171,32.6000001 19.769012,32.576 C19.0730085,32.5639999 18.4850144,32.459001 18.005012,32.261 C17.5250096,32.062999 17.1440134,31.8170015 16.862012,31.523 C16.5800106,31.2289985 16.3880125,30.9110017 16.286012,30.569 C16.1840115,30.2269983 16.1630117,29.9000016 16.223012,29.588 C16.3310126,29.0359972 16.5290106,28.5830018 16.817012,28.229 C17.1050135,27.8749982 17.45301,27.599001 17.861012,27.401 C18.2690141,27.202999 18.7220095,27.0770003 19.220012,27.023 C19.7180145,26.9689997 20.2190095,26.9599998 20.723012,26.996 C21.119014,27.0320002 21.5390098,27.1159993 21.983012,27.248 C22.4270142,27.3800007 22.8890096,27.5359991 23.369012,27.716 C23.7770141,27.1759973 24.1700101,26.5910031 24.548012,25.961 C24.9260139,25.3309968 25.2890103,24.6500037 25.637012,23.918 Z M18.761012,31.046 C19.3730151,30.9859997 19.9760091,30.7820017 20.570012,30.434 C21.164015,30.0859983 21.7490091,29.6060031 22.325012,28.994 C21.9050099,28.6459983 21.4820142,28.367001 21.056012,28.157 C20.6300099,27.946999 20.1830144,27.8539999 19.715012,27.878 C19.2470097,27.9020001 18.8360138,27.9979992 18.482012,28.166 C18.1280103,28.3340008 17.8460131,28.5379988 17.636012,28.778 C17.426011,29.0180012 17.2880124,29.2759986 17.222012,29.552 C17.1560117,29.8280014 17.1680116,30.0799989 17.258012,30.308 C17.3480125,30.5360011 17.5160108,30.7219993 17.762012,30.866 C18.0080133,31.0100007 18.3410099,31.0700001 18.761012,31.046 Z M35.231012,17.96 C34.8710102,17.96 34.5380136,18.0889987 34.232012,18.347 C33.9260105,18.6050013 33.6290135,18.9589977 33.341012,19.409 C33.0530106,19.8590022 32.7620135,20.383997 32.468012,20.984 C32.1740106,21.584003 31.8650136,22.2199966 31.541012,22.892 C32.1170149,22.7599993 32.6690094,22.5710012 33.197012,22.325 C33.7250147,22.0789988 34.19301,21.7910016 34.601012,21.461 C35.0090141,21.1309983 35.3420107,20.7590021 35.600012,20.345 C35.8580133,19.9309979 35.9990119,19.4900023 36.023012,19.022 C36.0470121,18.7579987 35.9810128,18.5150011 35.825012,18.293 C35.6690112,18.0709989 35.4710132,17.96 35.231012,17.96 Z M43.3877813,31.982 C42.6677777,31.9940001 42.1037833,31.8200018 41.6957813,31.46 C41.2877792,31.0999982 41.0477816,30.6020032 40.9757813,29.966 C40.6757798,30.6260033 40.2827837,31.1239983 39.7967813,31.46 C39.3107788,31.7960017 38.6717852,31.9759999 37.8797813,32 C37.3517786,32.0240001 36.910783,31.937001 36.5567813,31.739 C36.2027795,31.540999 35.9327822,31.2650018 35.7467813,30.911 C35.5607803,30.5569982 35.4647813,30.1310025 35.4587813,29.633 C35.4527812,29.1349975 35.5397804,28.5920029 35.7197813,28.004 L37.0337813,23.594 C37.0577814,23.5219996 37.096781,23.3780011 37.1507813,23.162 C37.2047815,22.9459989 37.2377812,22.7120013 37.2497813,22.46 C37.2617813,22.2079987 37.2377816,21.9680011 37.1777813,21.74 C37.117781,21.5119989 36.9857823,21.3440005 36.7817813,21.236 L37.6817813,21.236 C38.5097854,21.236 39.1427791,21.3709986 39.5807813,21.641 C40.0187834,21.9110013 40.3217804,22.243998 40.4897813,22.64 C40.6577821,23.036002 40.7267814,23.4559978 40.6967813,23.9 C40.6667811,24.3440022 40.5977818,24.7459982 40.4897813,25.106 L39.2477813,29.48 C39.2117811,29.5880005 39.1727815,29.7229992 39.1307813,29.885 C39.088781,30.0470008 39.0617813,30.1999993 39.0497813,30.344 C39.0377812,30.4880007 39.058781,30.6109995 39.1127813,30.713 C39.1667815,30.8150005 39.2717805,30.866 39.4277813,30.866 C39.6317823,30.866 39.8267803,30.767001 40.0127813,30.569 C40.1987822,30.370999 40.3667805,30.1250015 40.5167813,29.831 C40.666782,29.5369985 40.8047806,29.2190017 40.9307813,28.877 C41.0567819,28.5349983 41.1617808,28.2200014 41.2457813,27.932 L42.6317813,23.558 C42.6557814,23.4859996 42.694781,23.3420011 42.7487813,23.126 C42.8027815,22.9099989 42.8357812,22.6760013 42.8477813,22.424 C42.8597813,22.1719987 42.8357816,21.9320011 42.7757813,21.704 C42.715781,21.4759989 42.5837823,21.3080005 42.3797813,21.2 L43.2797813,21.2 C44.1077854,21.2 44.7407791,21.3349986 45.1787813,21.605 C45.6167834,21.8750013 45.9197804,22.207998 46.0877813,22.604 C46.2557821,23.000002 46.3247814,23.4199978 46.2947813,23.864 C46.2647811,24.3080022 46.1957818,24.7099982 46.0877813,25.07 L44.7557813,29.48 C44.6237806,29.9240022 44.5577813,30.247999 44.5577813,30.452 C44.5577813,30.656001 44.6237806,30.7699999 44.7557813,30.794 C44.8277816,30.8060001 44.9537804,30.7970001 45.1337813,30.767 C45.3137822,30.7369999 45.52678,30.6620006 45.7727813,30.542 C46.0187825,30.4219994 46.2827798,30.2510011 46.5647813,30.029 C46.8467827,29.8069989 47.11378,29.5040019 47.3657813,29.12 C47.2097805,29.7440031 46.9637829,30.2449981 46.6277813,30.623 C46.2917796,31.0010019 45.9287832,31.288999 45.5387813,31.487 C45.1487793,31.685001 44.7587832,31.8169997 44.3687813,31.883 C43.9787793,31.9490003 43.6517826,31.982 43.3877813,31.982 Z M55.9545505,24.35 C55.8465499,24.6020013 55.7355511,24.8599987 55.6215505,25.124 C55.5075499,25.3880013 55.4145508,25.6459987 55.3425505,25.898 C55.2705501,26.1500013 55.2315505,26.3899989 55.2255505,26.618 C55.2195505,26.8460011 55.2705499,27.0499991 55.3785505,27.23 C55.2345498,27.23 55.0905512,27.2240001 54.9465505,27.212 C54.8025498,27.1999999 54.6345514,27.1700002 54.4425505,27.122 C53.9745481,27.0139995 53.6355515,26.8460011 53.4255505,26.618 C53.2155494,26.3899989 53.0985506,26.1230015 53.0745505,25.817 C53.0505504,25.5109985 53.1045498,25.1690019 53.2365505,24.791 C53.3685511,24.4129981 53.5425494,24.0140021 53.7585505,23.594 C53.8425509,23.4139991 53.9205501,23.2310009 53.9925505,23.045 C54.0645508,22.8589991 54.1305502,22.670001 54.1905505,22.478 C53.8665489,22.3459993 53.4675529,22.5229976 52.9935505,23.009 C52.5195481,23.4950024 52.030553,24.2239951 51.5265505,25.196 C51.0105479,26.204005 50.6775512,27.1399957 50.5275505,28.004 C50.3775497,28.8680043 50.4765487,29.6119969 50.8245505,30.236 C51.0525516,30.6080019 51.4365478,30.8479995 51.9765505,30.956 C52.5165532,31.0640005 53.1165472,31.022001 53.7765505,30.83 C54.4365538,30.637999 55.1025471,30.2840026 55.7745505,29.768 C56.4465538,29.2519974 57.028548,28.5620043 57.5205505,27.698 C57.0765483,28.7300052 56.5815532,29.548997 56.0355505,30.155 C55.4895478,30.761003 54.9375533,31.2199984 54.3795505,31.532 C53.8215477,31.8440016 53.2725532,32.0449995 52.7325505,32.135 C52.1925478,32.2250004 51.7125526,32.2640001 51.2925505,32.252 C50.3205456,32.2159998 49.4955539,32.0330017 48.8175505,31.703 C48.1395471,31.3729983 47.6205523,30.9290028 47.2605505,30.371 C46.9005487,29.8129972 46.7025507,29.1530038 46.6665505,28.391 C46.6305503,27.6289962 46.7685489,26.7980045 47.0805505,25.898 C47.2965516,25.2499968 47.5845487,24.6380029 47.9445505,24.062 C48.3045523,23.4859971 48.7125482,22.9790022 49.1685505,22.541 C49.6245528,22.1029978 50.1195478,21.7490014 50.6535505,21.479 C51.1875532,21.2089986 51.7365477,21.0620001 52.3005505,21.038 C52.9845539,21.0019998 53.6685471,21.187998 54.3525505,21.596 L54.3525505,21.614 C54.3765506,21.4819993 54.3855505,21.3530006 54.3795505,21.227 C54.3735505,21.1009994 54.3585506,20.9780006 54.3345505,20.858 C54.4185509,20.8820001 54.5265498,20.9149998 54.6585505,20.957 C54.7905511,20.9990002 54.9465496,21.0499997 55.1265505,21.11 C55.5465526,21.2780008 55.8525495,21.4849988 56.0445505,21.731 C56.2365514,21.9770012 56.3505503,22.2439986 56.3865505,22.532 C56.4225507,22.8200014 56.3955509,23.1199984 56.3055505,23.432 C56.21555,23.7440016 56.0985512,24.0499985 55.9545505,24.35 Z M59.0533197,31.982 C58.5253171,31.982 58.0843215,31.886001 57.7303197,31.694 C57.3763179,31.501999 57.1063206,31.2320017 56.9203197,30.884 C56.7343188,30.5359983 56.6383197,30.1160025 56.6323197,29.624 C56.6263197,29.1319975 56.7133188,28.5920029 56.8933197,28.004 L58.2973197,23.558 C58.3213198,23.4859996 58.3603194,23.3420011 58.4143197,23.126 C58.46832,22.9099989 58.5013197,22.6760013 58.5133197,22.424 C58.5253198,22.1719987 58.50132,21.9320011 58.4413197,21.704 C58.3813194,21.4759989 58.2493207,21.3080005 58.0453197,21.2 L58.9453197,21.2 C59.7733239,21.2 60.4063175,21.3349986 60.8443197,21.605 C61.2823219,21.8750013 61.5853189,22.207998 61.7533197,22.604 C61.9213206,23.000002 61.9903199,23.4199978 61.9603197,23.864 C61.9303196,24.3080022 61.8613203,24.7099982 61.7533197,25.07 L60.4213197,29.48 C60.2893191,29.9240022 60.2233197,30.247999 60.2233197,30.452 C60.2233197,30.656001 60.2893191,30.7699999 60.4213197,30.794 C60.4933201,30.8060001 60.6223188,30.7970001 60.8083197,30.767 C60.9943206,30.7369999 61.2133185,30.6620006 61.4653197,30.542 C61.717321,30.4219994 61.9843183,30.2510011 62.2663197,30.029 C62.5483211,29.8069989 62.8153185,29.5040019 63.0673197,29.12 C62.8873188,29.7320031 62.6233215,30.2239981 62.2753197,30.596 C61.927318,30.9680019 61.5583217,31.255999 61.1683197,31.46 C60.7783178,31.664001 60.3943216,31.8019996 60.0163197,31.874 C59.6383178,31.9460004 59.317321,31.982 59.0533197,31.982 Z M59.4313197,18.86 C59.4313197,18.5599985 59.4793192,18.2720014 59.5753197,17.996 C59.6713202,17.7199986 59.8003189,17.4710011 59.9623197,17.249 C60.1243205,17.0269989 60.3193186,16.8380008 60.5473197,16.682 C60.7753209,16.5259992 61.0213184,16.4240002 61.2853197,16.376 C61.537321,16.3039996 61.7743186,16.2949997 61.9963197,16.349 C62.2183208,16.4030003 62.4163188,16.5049993 62.5903197,16.655 C62.7643206,16.8050007 62.9023192,16.9969988 63.0043197,17.231 C63.1063202,17.4650012 63.1573197,17.7319985 63.1573197,18.032 C63.1573197,18.3320015 63.1123202,18.6229986 63.0223197,18.905 C62.9323193,19.1870014 62.8033206,19.4449988 62.6353197,19.679 C62.4673189,19.9130012 62.2723208,20.1109992 62.0503197,20.273 C61.8283186,20.4350008 61.585321,20.5519996 61.3213197,20.624 C60.7933171,20.7440006 60.3523215,20.6420016 59.9983197,20.318 C59.6443179,19.9939984 59.4553198,19.5080032 59.4313197,18.86 Z M62.7640889,25.898 C63.0040901,25.1659963 63.3250869,24.4910031 63.7270889,23.873 C64.129091,23.2549969 64.6030862,22.7270022 65.1490889,22.289 C65.6950917,21.8509978 66.3100855,21.5240011 66.9940889,21.308 C67.6780924,21.0919989 68.4280849,21.0079998 69.2440889,21.056 C70.4200948,21.1280004 71.2810862,21.4159975 71.8270889,21.92 C72.3730917,22.4240025 72.53809,23.0899959 72.3220889,23.918 C72.2740887,24.0980009 72.2140893,24.3049988 72.1420889,24.539 C72.0700886,24.7730012 71.9920894,25.0129988 71.9080889,25.259 C71.8240885,25.5050012 71.7370894,25.7479988 71.6470889,25.988 C71.5570885,26.2280012 71.4700894,26.443999 71.3860889,26.636 C70.6660853,26.9360015 70.0420916,27.1519993 69.5140889,27.284 C68.9860863,27.4160007 68.5420907,27.479 68.1820889,27.473 C67.8220871,27.467 67.54009,27.4040006 67.3360889,27.284 C67.1320879,27.1639994 66.9940893,26.9960011 66.9220889,26.78 C66.6460876,27.4760035 66.4510895,28.1059972 66.3370889,28.67 C66.2230884,29.2340028 66.3040876,29.7499977 66.5800889,30.218 C66.7480898,30.5180015 66.9700876,30.7219995 67.2460889,30.83 C67.5220903,30.9380005 67.8400871,31.0039999 68.2000889,31.028 C68.6680913,31.0640002 69.1480865,30.986001 69.6400889,30.794 C70.1320914,30.601999 70.6030867,30.3470016 71.0530889,30.029 C71.5030912,29.7109984 71.9110871,29.351002 72.2770889,28.949 C72.6430908,28.546998 72.9280879,28.148002 73.1320889,27.752 C72.8080873,28.556004 72.4300911,29.2459971 71.9980889,29.822 C71.5660868,30.3980029 71.0980915,30.8659982 70.5940889,31.226 C70.0900864,31.5860018 69.5530918,31.8469992 68.9830889,32.009 C68.4130861,32.1710008 67.822092,32.2460001 67.2100889,32.234 C66.2380841,32.2099999 65.3980925,32.0510015 64.6900889,31.757 C63.9820854,31.4629985 63.4330909,31.0460027 63.0430889,30.506 C62.653087,29.9659973 62.4280892,29.3090039 62.3680889,28.535 C62.3080886,27.7609961 62.4400873,26.8820049 62.7640889,25.898 Z M67.5340889,25.34 C67.5100888,25.3640001 67.495089,25.3939998 67.4890889,25.43 C67.4830889,25.4660002 67.474089,25.4959999 67.4620889,25.52 C67.3300883,25.8680017 67.258089,26.1739987 67.2460889,26.438 C67.2340889,26.7020013 67.3480877,26.8639997 67.5880889,26.924 C67.7800899,26.9840003 67.969088,26.9330008 68.1550889,26.771 C68.3410899,26.6089992 68.5360879,26.3120022 68.7400889,25.88 L69.6940889,23.738 C69.7780894,23.5579991 69.8590886,23.3570011 69.9370889,23.135 C70.0150893,22.9129989 70.0690888,22.706001 70.0990889,22.514 C70.1290891,22.321999 70.1230892,22.1510008 70.0810889,22.001 C70.0390887,21.8509993 69.9460897,21.7580002 69.8020889,21.722 C69.6460882,21.6859998 69.4870898,21.7429993 69.3250889,21.893 C69.1630881,22.0430007 69.0040897,22.2379988 68.8480889,22.478 C68.6920882,22.7180012 68.5510896,22.9759986 68.4250889,23.252 C68.2990883,23.5280014 68.1940894,23.767999 68.1100889,23.972 L67.5340889,25.34 Z M91.1016274,20.318 C90.9696267,20.5700013 90.8346281,20.8309986 90.6966274,21.101 C90.5586267,21.3710014 90.4446279,21.6379987 90.3546274,21.902 C90.264627,22.1660013 90.2106275,22.4209988 90.1926274,22.667 C90.1746273,22.9130012 90.2316267,23.1439989 90.3636274,23.36 C90.1836265,23.3359999 90.0096282,23.3090001 89.8416274,23.279 C89.6736266,23.2489998 89.4696286,23.1920004 89.2296274,23.108 C88.6776246,22.9399992 88.2816286,22.7210013 88.0416274,22.451 C87.8016262,22.1809986 87.6756275,21.8750017 87.6636274,21.533 C87.6516273,21.1909983 87.7296266,20.822002 87.8976274,20.426 C88.0656282,20.029998 88.2816261,19.6220021 88.5456274,19.202 L88.5996274,19.112 C88.4316266,18.703998 88.1826291,18.3620014 87.8526274,18.086 C87.5226258,17.8099986 87.09363,17.7019997 86.5656274,17.762 C86.2296257,17.7980002 85.9536285,17.8849993 85.7376274,18.023 C85.5216263,18.1610007 85.350628,18.3229991 85.2246274,18.509 C85.0986268,18.6950009 85.0056277,18.8959989 84.9456274,19.112 C84.8856271,19.3280011 84.8496275,19.537999 84.8376274,19.742 C84.8136273,20.150002 84.939626,20.5159984 85.2156274,20.84 C85.4916288,21.1640016 85.8366253,21.4819984 86.2506274,21.794 C86.6646295,22.1060016 87.111625,22.4329983 87.5916274,22.775 C88.0716298,23.1170017 88.5066255,23.5039978 88.8966274,23.936 C89.2866294,24.3680022 89.5986262,24.8659972 89.8326274,25.43 C90.0666286,25.9940028 90.1416278,26.6599962 90.0576274,27.428 C90.0336273,27.6680012 89.9676279,27.9559983 89.8596274,28.292 C89.7516269,28.6280017 89.5806286,28.9759982 89.3466274,29.336 C89.1126262,29.6960018 88.8006294,30.0499983 88.4106274,30.398 C88.0206255,30.7460017 87.5406303,31.0609986 86.9706274,31.343 C86.4006246,31.6250014 85.7196314,31.8529991 84.9276274,32.027 C84.1356234,32.2010009 83.2236326,32.288 82.1916274,32.288 C82.0236266,32.288 81.777629,32.2700002 81.4536274,32.234 C81.1296258,32.1979998 80.7786293,32.1320005 80.4006274,32.036 C80.0226255,31.9399995 79.6386294,31.8050009 79.2486274,31.631 C78.8586255,31.4569991 78.504629,31.2350014 78.1866274,30.965 C77.8686258,30.6949986 77.6136284,30.3680019 77.4216274,29.984 C77.2296264,29.5999981 77.1456273,29.1500026 77.1696274,28.634 C77.1816275,28.2979983 77.2476268,27.9560017 77.3676274,27.608 C77.487628,27.2599983 77.6736261,26.9390015 77.9256274,26.645 C78.1776287,26.3509985 78.5106253,26.108001 78.9246274,25.916 C79.3386295,25.723999 79.8516243,25.6160001 80.4636274,25.592 C80.787629,25.5799999 81.1086258,25.6189995 81.4266274,25.709 C81.744629,25.7990005 82.0266262,25.9189992 82.2726274,26.069 C82.5186286,26.2190007 82.7196266,26.3989989 82.8756274,26.609 C83.0316282,26.819001 83.1096274,27.0319989 83.1096274,27.248 C83.025627,27.1879997 82.8516287,27.1879997 82.5876274,27.248 C82.3236261,27.3080003 82.0446289,27.4249991 81.7506274,27.599 C81.4566259,27.7730009 81.1896286,28.0099985 80.9496274,28.31 C80.7096262,28.6100015 80.5716276,28.9699979 80.5356274,29.39 C80.5236273,29.5700009 80.5476271,29.7769988 80.6076274,30.011 C80.6676277,30.2450012 80.7726267,30.463999 80.9226274,30.668 C81.0726282,30.872001 81.2676262,31.0459993 81.5076274,31.19 C81.7476286,31.3340007 82.0416257,31.4119999 82.3896274,31.424 C82.6776288,31.424 82.9476261,31.3670006 83.1996274,31.253 C83.4516287,31.1389994 83.6766264,30.983001 83.8746274,30.785 C84.0726284,30.586999 84.2376267,30.3470014 84.3696274,30.065 C84.5016281,29.7829986 84.5916272,29.4800016 84.6396274,29.156 C84.6996277,28.6039972 84.6246285,28.1060022 84.4146274,27.662 C84.2046264,27.2179978 83.9286291,26.795002 83.5866274,26.393 C83.2446257,25.990998 82.8666295,25.6010019 82.4526274,25.223 C82.0386253,24.8449981 81.6606291,24.4460021 81.3186274,24.026 C80.9766257,23.6059979 80.7006285,23.1500025 80.4906274,22.658 C80.2806264,22.1659975 80.2056271,21.6080031 80.2656274,20.984 C80.3376278,20.2519963 80.5656255,19.6070028 80.9496274,19.049 C81.3336293,18.4909972 81.8046246,18.0260019 82.3626274,17.654 C82.9206302,17.2819981 83.535624,17.0060009 84.2076274,16.826 C84.8796308,16.6459991 85.5396242,16.5619999 86.1876274,16.574 C86.4516287,16.5860001 86.724626,16.6099998 87.0066274,16.646 C87.2886288,16.6820002 87.5646261,16.7389996 87.8346274,16.817 C88.1046288,16.8950004 88.3566262,16.9909994 88.5906274,17.105 C88.8246286,17.2190006 89.0316265,17.3599992 89.2116274,17.528 C89.3196279,17.0839978 89.3496276,16.6760019 89.3016274,16.304 C89.3616277,16.3400002 89.4786265,16.3909997 89.6526274,16.457 C89.8266283,16.5230003 90.0156264,16.5979996 90.2196274,16.682 C90.7116299,16.9100011 91.0686263,17.1709985 91.2906274,17.465 C91.5126285,17.7590015 91.6416272,18.0679984 91.6776274,18.392 C91.7136276,18.7160016 91.671628,19.0429983 91.5516274,19.373 C91.4316268,19.7030016 91.2816283,20.0179985 91.1016274,20.318 Z M94.5783966,29.48 C94.446396,29.9240022 94.3803966,30.247999 94.3803966,30.452 C94.3803966,30.656001 94.446396,30.7699999 94.5783966,30.794 C94.650397,30.8060001 94.7763957,30.7940002 94.9563966,30.758 C95.1363975,30.7219998 95.3493954,30.6410006 95.5953966,30.515 C95.8413979,30.3889994 96.1053952,30.2120011 96.3873966,29.984 C96.669398,29.7559989 96.9363954,29.4500019 97.1883966,29.066 C97.0443959,29.6780031 96.8073983,30.1759981 96.4773966,30.56 C96.147395,30.9440019 95.7843986,31.2409989 95.3883966,31.451 C94.9923947,31.661001 94.5993986,31.8019996 94.2093966,31.874 C93.8193947,31.9460004 93.486398,31.982 93.2103966,31.982 C92.1543914,31.9579999 91.4373985,31.5860036 91.0593966,30.866 C90.6813947,30.1459964 90.6783948,29.1920059 91.0503966,28.004 L93.3723966,20.246 C93.0843952,20.1859997 92.8173979,20.1410001 92.5713966,20.111 C92.3253954,20.0809998 92.1363973,20.0779999 92.0043966,20.102 C92.0283968,20.0299996 92.0463966,19.9580004 92.0583966,19.886 C92.0703967,19.8139996 92.1003964,19.7120007 92.1483966,19.58 C92.3043974,19.1239977 92.5383951,18.8030009 92.8503966,18.617 C93.1623982,18.4309991 93.5163947,18.338 93.9123966,18.338 C93.9363968,18.1939993 93.9513966,18.0410008 93.9573966,17.879 C93.9633967,17.7169992 93.9513968,17.5610007 93.9213966,17.411 C93.8913965,17.2609993 93.843397,17.1260006 93.7773966,17.006 C93.7113963,16.8859994 93.6123973,16.7900004 93.4803966,16.718 L94.3803966,16.718 C94.9803996,16.718 95.4753947,16.7929992 95.8653966,16.943 C96.2553986,17.0930007 96.5643955,17.2879988 96.7923966,17.528 C97.0203978,17.7680012 97.1793962,18.0379985 97.2693966,18.338 C97.3593971,18.6380015 97.4043966,18.9439984 97.4043966,19.256 C97.9203992,19.3880007 98.3703947,19.4120004 98.7543966,19.328 C98.7303965,19.4840008 98.7063968,19.5889997 98.6823966,19.643 C98.6583965,19.6970003 98.6343968,19.7779995 98.6103966,19.886 C98.4303957,20.4140026 98.199398,20.7709991 97.9173966,20.957 C97.6353952,21.1430009 97.3323983,21.2240001 97.0083966,21.2 L94.5783966,29.48 Z M105.741166,24.8 C105.681166,24.9800009 105.597166,25.2019987 105.489166,25.466 C105.381165,25.7300013 105.306166,25.9969986 105.264166,26.267 C105.222166,26.5370014 105.231166,26.7829989 105.291166,27.005 C105.351166,27.2270011 105.513165,27.3799996 105.777166,27.464 C105.645165,27.4760001 105.483167,27.4760001 105.291166,27.464 C105.099165,27.4519999 104.901167,27.4280002 104.697166,27.392 C104.493165,27.3559998 104.295167,27.3110003 104.103166,27.257 C103.911165,27.2029997 103.743167,27.1400004 103.599166,27.068 C103.143164,26.7919986 102.906166,26.3720028 102.888166,25.808 C102.870166,25.2439972 102.993165,24.6080035 103.257166,23.9 L103.365166,23.612 C103.113165,23.9480017 102.876167,24.2749984 102.654166,24.593 C102.432165,24.9110016 102.222167,25.2409983 102.024166,25.583 C101.826165,25.9250017 101.634167,26.2819981 101.448166,26.654 C101.262165,27.0260019 101.073167,27.4339978 100.881166,27.878 L100.323166,29.642 C100.299166,29.7140004 100.260166,29.8579989 100.206166,30.074 C100.152166,30.2900011 100.119166,30.5239987 100.107166,30.776 C100.095166,31.0280013 100.119166,31.2679989 100.179166,31.496 C100.239166,31.7240011 100.371165,31.8919995 100.575166,32 L99.6751659,32 C98.8471617,32 98.2141681,31.8650014 97.7761659,31.595 C97.3381637,31.3249986 97.0351667,30.992002 96.8671659,30.596 C96.699165,30.199998 96.6301657,29.7800022 96.6601659,29.336 C96.690166,28.8919978 96.7591653,28.4900018 96.8671659,28.13 L98.3251659,23.594 C98.349166,23.5219996 98.3881656,23.3780011 98.4421659,23.162 C98.4961661,22.9459989 98.5291658,22.7120013 98.5411659,22.46 C98.5531659,22.2079987 98.5291662,21.9680011 98.4691659,21.74 C98.4091656,21.5119989 98.2771669,21.3440005 98.0731659,21.236 L98.9731659,21.236 C99.7891699,21.236 100.416164,21.3679987 100.854166,21.632 C101.292168,21.8960013 101.598165,22.222998 101.772166,22.613 C101.946167,23.0030019 102.021166,23.4199978 101.997166,23.864 C101.973166,24.3080022 101.907166,24.7099982 101.799166,25.07 C102.147168,24.469997 102.492164,23.9330024 102.834166,23.459 C103.176168,22.9849976 103.539164,22.5200023 103.923166,22.064 C103.983166,21.7639985 103.989166,21.5000011 103.941166,21.272 C104.121167,21.3320003 104.268165,21.3799998 104.382166,21.416 C104.496166,21.4520002 104.595165,21.4789999 104.679166,21.497 C104.763166,21.5150001 104.838166,21.5329999 104.904166,21.551 C104.970166,21.5690001 105.033166,21.5899999 105.093166,21.614 C105.561168,21.7820008 105.876165,21.9919987 106.038166,22.244 C106.200167,22.4960013 106.275166,22.7659986 106.263166,23.054 C106.251166,23.3420014 106.185166,23.6389985 106.065166,23.945 C105.945165,24.2510015 105.837166,24.5359987 105.741166,24.8 Z M113.591935,23.864 C113.711936,23.467998 113.744935,23.174001 113.690935,22.982 C113.636935,22.789999 113.534936,22.6880001 113.384935,22.676 C113.234934,22.6639999 113.057936,22.7419992 112.853935,22.91 C112.649934,23.0780008 112.457936,23.3239984 112.277935,23.648 C112.181935,23.8160008 112.097935,24.0079989 112.025935,24.224 C111.953935,24.4400011 111.869936,24.7279982 111.773935,25.088 L110.369935,29.642 C110.345935,29.7140004 110.306935,29.8579989 110.252935,30.074 C110.198935,30.2900011 110.165935,30.5239987 110.153935,30.776 C110.141935,31.0280013 110.165935,31.2679989 110.225935,31.496 C110.285935,31.7240011 110.417934,31.8919995 110.621935,32 L109.721935,32 C108.893931,32 108.260937,31.8650014 107.822935,31.595 C107.384933,31.3249986 107.081936,30.992002 106.913935,30.596 C106.745934,30.199998 106.676935,29.7800022 106.706935,29.336 C106.736935,28.8919978 106.805935,28.4900018 106.913935,28.13 L108.317935,23.576 C108.341935,23.5039996 108.380935,23.3600011 108.434935,23.144 C108.488935,22.9279989 108.521935,22.6940013 108.533935,22.442 C108.545935,22.1899987 108.521935,21.9500011 108.461935,21.722 C108.401935,21.4939989 108.269936,21.3260005 108.065935,21.218 L108.965935,21.218 C109.517938,21.218 109.979933,21.2809994 110.351935,21.407 C110.723937,21.5330006 111.026934,21.7009989 111.260935,21.911 C111.494936,22.1210011 111.665935,22.3609986 111.773935,22.631 C111.881936,22.9010014 111.947935,23.1799986 111.971935,23.468 C112.115936,23.1439984 112.292934,22.8320015 112.502935,22.532 C112.712936,22.2319985 112.955934,21.9710011 113.231935,21.749 C113.507936,21.5269989 113.816933,21.3470007 114.158935,21.209 C114.500937,21.0709993 114.869933,21.002 115.265935,21.002 C115.877938,21.002 116.336934,21.1729983 116.642935,21.515 C116.948937,21.8570017 117.140935,22.2859974 117.218935,22.802 C117.296935,23.3180026 117.290936,23.875997 117.200935,24.476 C117.110935,25.076003 116.987936,25.6219975 116.831935,26.114 L115.859935,29.48 C115.715934,29.9720025 115.646935,30.3079991 115.652935,30.488 C115.658935,30.6680009 115.727934,30.7699999 115.859935,30.794 C115.931935,30.8060001 116.057934,30.7970001 116.237935,30.767 C116.417936,30.7369999 116.630934,30.6620006 116.876935,30.542 C117.122936,30.4219994 117.386934,30.2510011 117.668935,30.029 C117.950937,29.8069989 118.217934,29.5040019 118.469935,29.12 C118.289934,29.7320031 118.028937,30.2239981 117.686935,30.596 C117.344933,30.9680019 116.981937,31.255999 116.597935,31.46 C116.213933,31.664001 115.832937,31.8019996 115.454935,31.874 C115.076933,31.9460004 114.755936,31.982 114.491935,31.982 C113.963932,31.982 113.522937,31.886001 113.168935,31.694 C112.814933,31.501999 112.544936,31.2320017 112.358935,30.884 C112.172934,30.5359983 112.076935,30.1160025 112.070935,29.624 C112.064935,29.1319975 112.151934,28.5920029 112.331935,28.004 L113.591935,23.864 Z M126.266704,31.982 C125.510701,31.9940001 124.925706,31.802002 124.511704,31.406 C124.097702,31.009998 123.872705,30.4700034 123.836704,29.786 C123.692704,30.0980016 123.515705,30.3979986 123.305704,30.686 C123.095703,30.9740014 122.855706,31.2259989 122.585704,31.442 C122.315703,31.6580011 122.015706,31.8289994 121.685704,31.955 C121.355703,32.0810006 120.992706,32.144 120.596704,32.144 C119.960701,32.144 119.468706,31.9700017 119.120704,31.622 C118.772703,31.2739983 118.523705,30.8360026 118.373704,30.308 C118.223704,29.7799974 118.157704,29.2070031 118.175704,28.589 C118.193704,27.9709969 118.250704,27.3980026 118.346704,26.87 C118.466705,26.2819971 118.667703,25.6430034 118.949704,24.953 C119.231706,24.2629965 119.591702,23.6240029 120.029704,23.036 C120.467707,22.4479971 120.989701,21.9620019 121.595704,21.578 C122.201707,21.1939981 122.882701,21.0139999 123.638704,21.038 C123.962706,21.0500001 124.241703,21.1099995 124.475704,21.218 C124.709705,21.3260005 124.907704,21.4639992 125.069704,21.632 C125.231705,21.8000008 125.363704,21.9919989 125.465704,22.208 C125.567705,22.4240011 125.636704,22.6459989 125.672704,22.874 C125.696704,22.7179992 125.714704,22.5560008 125.726704,22.388 C125.738704,22.2199992 125.732704,22.0610007 125.708704,21.911 C125.684704,21.7609992 125.636705,21.6230006 125.564704,21.497 C125.492704,21.3709994 125.390705,21.2720004 125.258704,21.2 L126.158704,21.2 C126.986708,21.2 127.619702,21.3349986 128.057704,21.605 C128.495707,21.8750013 128.798703,22.207998 128.966704,22.604 C129.134705,23.000002 129.203704,23.4199978 129.173704,23.864 C129.143704,24.3080022 129.074705,24.7099982 128.966704,25.07 L127.634704,29.48 C127.502704,29.9240022 127.436704,30.247999 127.436704,30.452 C127.436704,30.656001 127.502704,30.7699999 127.634704,30.794 C127.706705,30.8060001 127.832703,30.7970001 128.012704,30.767 C128.192705,30.7369999 128.405703,30.6620006 128.651704,30.542 C128.897706,30.4219994 129.161703,30.2480011 129.443704,30.02 C129.725706,29.7919989 129.992703,29.4860019 130.244704,29.102 C130.076703,29.7140031 129.824706,30.2089981 129.488704,30.587 C129.152703,30.9650019 128.789706,31.255999 128.399704,31.46 C128.009702,31.664001 127.622706,31.8019996 127.238704,31.874 C126.854702,31.9460004 126.530706,31.982 126.266704,31.982 Z M123.962704,28.508 C123.986704,28.4239996 124.010704,28.3430004 124.034704,28.265 C124.058704,28.1869996 124.082704,28.1000005 124.106704,28.004 L125.438704,23.792 C125.498705,23.4319982 125.480705,23.1470011 125.384704,22.937 C125.288704,22.7269989 125.156705,22.6160001 124.988704,22.604 C124.820703,22.5919999 124.643705,22.684999 124.457704,22.883 C124.271703,23.081001 124.118705,23.4079977 123.998704,23.864 L122.396704,28.886 C122.264704,29.282002 122.222704,29.5999988 122.270704,29.84 C122.318705,30.0800012 122.408704,30.2299997 122.540704,30.29 C122.672705,30.3500003 122.834703,30.3200006 123.026704,30.2 C123.218705,30.0799994 123.404703,29.8580016 123.584704,29.534 C123.704705,29.3179989 123.791704,29.108001 123.845704,28.904 C123.899705,28.699999 123.938704,28.5680003 123.962704,28.508 Z M139.247474,29.48 C139.115473,29.9240022 139.049474,30.247999 139.049474,30.452 C139.049474,30.656001 139.115473,30.7699999 139.247474,30.794 C139.319474,30.8060001 139.448473,30.7970001 139.634474,30.767 C139.820474,30.7369999 140.036472,30.6620006 140.282474,30.542 C140.528475,30.4219994 140.789472,30.2510011 141.065474,30.029 C141.341475,29.8069989 141.599472,29.5040019 141.839474,29.12 C141.695473,29.7320031 141.458475,30.2239981 141.128474,30.596 C140.798472,30.9680019 140.435476,31.2589989 140.039474,31.469 C139.643472,31.6790011 139.250476,31.8169997 138.860474,31.883 C138.470472,31.9490003 138.143475,31.982 137.879474,31.982 C137.12347,31.9940001 136.538476,31.802002 136.124474,31.406 C135.710471,31.009998 135.485474,30.4700034 135.449474,29.786 C135.305473,30.0980016 135.128475,30.3979986 134.918474,30.686 C134.708473,30.9740014 134.468475,31.2259989 134.198474,31.442 C133.928472,31.6580011 133.628475,31.8289994 133.298474,31.955 C132.968472,32.0810006 132.605476,32.144 132.209474,32.144 C131.57347,32.144 131.081475,31.9700017 130.733474,31.622 C130.385472,31.2739983 130.136474,30.8360026 129.986474,30.308 C129.836473,29.7799974 129.770473,29.2070031 129.788474,28.589 C129.806474,27.9709969 129.863473,27.3980026 129.959474,26.87 C130.079474,26.2819971 130.280472,25.6430034 130.562474,24.953 C130.844475,24.2629965 131.204471,23.6240029 131.642474,23.036 C132.080476,22.4479971 132.602471,21.9620019 133.208474,21.578 C133.814477,21.1939981 134.49547,21.0139999 135.251474,21.038 C135.563475,21.0500001 135.836472,21.1069995 136.070474,21.209 C136.304475,21.3110005 136.502473,21.4429992 136.664474,21.605 C136.826474,21.7670008 136.958473,21.949999 137.060474,22.154 C137.162474,22.358001 137.237473,22.5739989 137.285474,22.802 L138.401474,19.076 C138.425474,19.0039996 138.464473,18.8600011 138.518474,18.644 C138.572474,18.4279989 138.605473,18.1940013 138.617474,17.942 C138.629474,17.6899987 138.605474,17.4500011 138.545474,17.222 C138.485473,16.9939989 138.353475,16.8260005 138.149474,16.718 L139.049474,16.718 C139.877478,16.718 140.510471,16.8529986 140.948474,17.123 C141.386476,17.3930013 141.689473,17.725998 141.857474,18.122 C142.025474,18.518002 142.094474,18.9379978 142.064474,19.382 C142.034473,19.8260022 141.965474,20.2279982 141.857474,20.588 L139.247474,29.48 Z M135.197474,29.534 C135.317474,29.3179989 135.404473,29.108001 135.458474,28.904 C135.512474,28.699999 135.551473,28.5680003 135.575474,28.508 C135.599474,28.4239996 135.623473,28.3430004 135.647474,28.265 C135.671474,28.1869996 135.695473,28.1000005 135.719474,28.004 L137.087474,23.45 C137.087474,23.1619986 137.033474,22.9460007 136.925474,22.802 C136.817473,22.6579993 136.685474,22.5949999 136.529474,22.613 C136.373473,22.6310001 136.208474,22.738999 136.034474,22.937 C135.860473,23.135001 135.719474,23.4439979 135.611474,23.864 L134.009474,28.886 C133.877473,29.282002 133.835473,29.5999988 133.883474,29.84 C133.931474,30.0800012 134.021473,30.2299997 134.153474,30.29 C134.285474,30.3500003 134.447473,30.3200006 134.639474,30.2 C134.831475,30.0799994 135.017473,29.8580016 135.197474,29.534 Z M148.628243,20.93 C149.660248,20.9540001 150.46724,21.1429982 151.049243,21.497 C151.631246,21.8510018 152.048242,22.3099972 152.300243,22.874 C152.552244,23.4380028 152.666243,24.0739965 152.642243,24.782 C152.618243,25.4900035 152.510244,26.1979965 152.318243,26.906 C152.102242,27.7220041 151.787245,28.4659966 151.373243,29.138 C150.959241,29.8100034 150.464246,30.3829976 149.888243,30.857 C149.31224,31.3310024 148.652247,31.6909988 147.908243,31.937 C147.164239,32.1830012 146.348247,32.2880002 145.460243,32.252 C144.488238,32.2039998 143.708246,31.9970018 143.120243,31.631 C142.53224,31.2649982 142.103244,30.7910029 141.833243,30.209 C141.563241,29.6269971 141.437243,28.9670037 141.455243,28.229 C141.473243,27.4909963 141.602242,26.7320039 141.842243,25.952 C142.070244,25.2079963 142.382241,24.5240031 142.778243,23.9 C143.174245,23.2759969 143.65124,22.7420022 144.209243,22.298 C144.767246,21.8539978 145.412239,21.5120012 146.144243,21.272 C146.876246,21.0319988 147.704238,20.9179999 148.628243,20.93 Z M145.244243,30.47 C145.136242,30.7940016 145.088243,31.0639989 145.100243,31.28 C145.112243,31.4960011 145.157242,31.6579995 145.235243,31.766 C145.313243,31.8740005 145.421242,31.925 145.559243,31.919 C145.697243,31.913 145.838242,31.8440007 145.982243,31.712 C146.162244,31.519999 146.312242,31.2380019 146.432243,30.866 L149.078243,22.532 C149.162243,22.2919988 149.204243,22.0520012 149.204243,21.812 C149.168243,21.5959989 149.093243,21.4430004 148.979243,21.353 C148.865242,21.2629995 148.736244,21.2419998 148.592243,21.29 C148.448242,21.3380002 148.301244,21.463999 148.151243,21.668 C148.001242,21.872001 147.872243,22.1599981 147.764243,22.532 L145.244243,30.47 Z M156.461012,32.144 C155.777009,32.1199999 155.177015,32.0450006 154.661012,31.919 C154.145009,31.7929994 153.737014,31.5770015 153.437012,31.271 C153.137011,30.9649985 152.966012,30.5510026 152.924012,30.029 C152.882012,29.5069974 152.987011,28.8320041 153.239012,28.004 L154.553012,23.594 C154.577012,23.5219996 154.616012,23.3780011 154.670012,23.162 C154.724012,22.9459989 154.757012,22.7120013 154.769012,22.46 C154.781012,22.2079987 154.757012,21.9680011 154.697012,21.74 C154.637012,21.5119989 154.505013,21.3440005 154.301012,21.236 L155.201012,21.236 C156.029016,21.236 156.66201,21.3709986 157.100012,21.641 C157.538014,21.9110013 157.841011,22.243998 158.009012,22.64 C158.177013,23.036002 158.246012,23.4559978 158.216012,23.9 C158.186012,24.3440022 158.117013,24.7459982 158.009012,25.106 L156.767012,29.48 C156.731012,29.5880005 156.680012,29.7589988 156.614012,29.993 C156.548012,30.2270012 156.497012,30.4579989 156.461012,30.686 C156.425012,30.9140011 156.419012,31.1149991 156.443012,31.289 C156.467012,31.4630009 156.557011,31.55 156.713012,31.55 C156.929013,31.55 157.127011,31.451001 157.307012,31.253 C157.487013,31.054999 157.661011,30.7940016 157.829012,30.47 C157.937013,30.2419989 158.042012,29.9900014 158.144012,29.714 C158.246013,29.4379986 158.351011,29.1290017 158.459012,28.787 C158.567013,28.4449983 158.687011,28.0640021 158.819012,27.644 C158.951013,27.2239979 159.107011,26.7500026 159.287012,26.222 C159.539013,25.429996 159.734011,24.7100032 159.872012,24.062 C160.010013,23.4139968 160.058012,22.8290026 160.016012,22.307 C159.974012,21.7849974 159.827013,21.326002 159.575012,20.93 C159.323011,20.533998 158.939015,20.1860015 158.423012,19.886 L159.269012,19.886 C160.277017,19.886 161.075009,20.0389985 161.663012,20.345 C162.251015,20.6510015 162.692011,21.0439976 162.986012,21.524 C163.280013,22.0040024 163.451012,22.5349971 163.499012,23.117 C163.547012,23.6990029 163.538012,24.2629973 163.472012,24.809 C163.406012,25.3550027 163.307013,25.8499978 163.175012,26.294 C163.043011,26.7380022 162.941012,27.055999 162.869012,27.248 C162.55701,28.1240044 162.152015,28.8769968 161.654012,29.507 C161.15601,30.1370031 160.619015,30.649998 160.043012,31.046 C159.467009,31.442002 158.867015,31.7299991 158.243012,31.91 C157.619009,32.0900009 157.025015,32.1680001 156.461012,32.144 Z M171.241781,31.982 C170.485777,31.9940001 169.900783,31.802002 169.486781,31.406 C169.072779,31.009998 168.847781,30.4700034 168.811781,29.786 C168.667781,30.0980016 168.490782,30.3979986 168.280781,30.686 C168.07078,30.9740014 167.830783,31.2259989 167.560781,31.442 C167.29078,31.6580011 166.990783,31.8289994 166.660781,31.955 C166.33078,32.0810006 165.967783,32.144 165.571781,32.144 C164.935778,32.144 164.443783,31.9700017 164.095781,31.622 C163.74778,31.2739983 163.498782,30.8360026 163.348781,30.308 C163.19878,29.7799974 163.132781,29.2070031 163.150781,28.589 C163.168781,27.9709969 163.225781,27.3980026 163.321781,26.87 C163.441782,26.2819971 163.64278,25.6430034 163.924781,24.953 C164.206783,24.2629965 164.566779,23.6240029 165.004781,23.036 C165.442783,22.4479971 165.964778,21.9620019 166.570781,21.578 C167.176784,21.1939981 167.857777,21.0139999 168.613781,21.038 C168.937783,21.0500001 169.21678,21.1099995 169.450781,21.218 C169.684782,21.3260005 169.88278,21.4639992 170.044781,21.632 C170.206782,21.8000008 170.338781,21.9919989 170.440781,22.208 C170.542782,22.4240011 170.611781,22.6459989 170.647781,22.874 C170.671781,22.7179992 170.689781,22.5560008 170.701781,22.388 C170.713781,22.2199992 170.707781,22.0610007 170.683781,21.911 C170.659781,21.7609992 170.611782,21.6230006 170.539781,21.497 C170.467781,21.3709994 170.365782,21.2720004 170.233781,21.2 L171.133781,21.2 C171.961785,21.2 172.594779,21.3349986 173.032781,21.605 C173.470783,21.8750013 173.77378,22.207998 173.941781,22.604 C174.109782,23.000002 174.178781,23.4199978 174.148781,23.864 C174.118781,24.3080022 174.049782,24.7099982 173.941781,25.07 L172.609781,29.48 C172.477781,29.9240022 172.411781,30.247999 172.411781,30.452 C172.411781,30.656001 172.477781,30.7699999 172.609781,30.794 C172.681782,30.8060001 172.80778,30.7970001 172.987781,30.767 C173.167782,30.7369999 173.38078,30.6620006 173.626781,30.542 C173.872782,30.4219994 174.13678,30.2480011 174.418781,30.02 C174.700783,29.7919989 174.96778,29.4860019 175.219781,29.102 C175.05178,29.7140031 174.799783,30.2089981 174.463781,30.587 C174.12778,30.9650019 173.764783,31.255999 173.374781,31.46 C172.984779,31.664001 172.597783,31.8019996 172.213781,31.874 C171.829779,31.9460004 171.505783,31.982 171.241781,31.982 Z M168.937781,28.508 C168.961781,28.4239996 168.985781,28.3430004 169.009781,28.265 C169.033781,28.1869996 169.057781,28.1000005 169.081781,28.004 L170.413781,23.792 C170.473782,23.4319982 170.455782,23.1470011 170.359781,22.937 C170.263781,22.7269989 170.131782,22.6160001 169.963781,22.604 C169.79578,22.5919999 169.618782,22.684999 169.432781,22.883 C169.24678,23.081001 169.093782,23.4079977 168.973781,23.864 L167.371781,28.886 C167.239781,29.282002 167.197781,29.5999988 167.245781,29.84 C167.293781,30.0800012 167.383781,30.2299997 167.515781,30.29 C167.647782,30.3500003 167.80978,30.3200006 168.001781,30.2 C168.193782,30.0799994 168.37978,29.8580016 168.559781,29.534 C168.679782,29.3179989 168.766781,29.108001 168.820781,28.904 C168.874782,28.699999 168.913781,28.5680003 168.937781,28.508 Z"/>
    <rect width="189" height="52" x=".5" y=".5" stroke="#FFFFFF"/>
  </g>
</svg>
