<svg xmlns="http://www.w3.org/2000/svg" width="55" height="53" viewBox="0 0 55 53">
  <g fill="none" fill-rule="evenodd">
    <path fill="#646464" d="M20.5854625,25.8912001 C20.6098135,25.8672 20.6250327,25.8372003 20.6311205,25.8012001 C20.6372082,25.7651999 20.6524274,25.7292003 20.6767784,25.6932001 C19.240068,25.3091982 18.1808143,24.7392039 17.4989856,23.9832001 C16.8171569,23.2271963 16.47016,22.4052045 16.4579845,21.5172001 C16.445809,21.0011975 16.5310363,20.5332022 16.713669,20.1132001 C16.8963017,19.693198 17.1398083,19.3332016 17.4441961,19.0332001 C17.7485839,18.7331986 18.1016684,18.496201 18.5034603,18.3222001 C18.9052522,18.1481992 19.3253011,18.0432003 19.7636195,18.0072001 C20.1045339,17.9832 20.4423993,18.0191996 20.7772259,18.1152001 C21.1120525,18.2112006 21.3981727,18.367199 21.6355952,18.5832001 C21.8730177,18.7992012 22.0373846,19.0661985 22.128701,19.3842001 C22.2200173,19.7022017 22.1926228,20.071198 22.0465167,20.4912001 C21.9612881,20.2151987 21.836491,20.0172007 21.6721215,19.8972001 C21.5077521,19.7771995 21.2672894,19.7172001 20.950726,19.7172001 C20.7437423,19.7172001 20.5458932,19.7651996 20.3571728,19.8612001 C20.1684524,19.9572006 19.9979977,20.0861993 19.8458038,20.2482001 C19.6936099,20.4102009 19.5688128,20.5931991 19.4714087,20.7972001 C19.3740046,21.0012011 19.313128,21.211199 19.2887769,21.4272001 C19.2522504,22.0392032 19.4135735,22.6001975 19.7727511,23.1102001 C20.1319287,23.6202026 20.6402488,24.0431984 21.2977264,24.3792001 C21.5899387,23.7911972 21.9430233,23.1732033 22.3569907,22.5252001 C22.7709581,21.8771969 23.2731904,21.2772029 23.8637028,20.7252001 C24.4542151,20.1731973 25.1512527,19.711202 25.9548365,19.3392001 C26.7584203,18.9671982 27.689833,18.7632003 28.7491026,18.7272001 C28.8708577,18.7272001 29.0382685,18.7332 29.25134,18.7452001 C29.4644114,18.7572002 29.6957427,18.7901998 29.9453407,18.8442001 C30.1949387,18.8982004 30.4506206,18.9791996 30.7123941,19.0872001 C30.9741676,19.1952006 31.2115866,19.3421992 31.424658,19.5282001 C31.6377295,19.714201 31.8142718,19.9481987 31.9542902,20.2302001 C32.0943085,20.5122015 32.1643167,20.8451982 32.1643167,21.2292001 C32.1643167,21.817203 31.9938621,22.3751975 31.6529477,22.9032001 C31.3120334,23.4312027 30.8554585,23.905198 30.2832095,24.3252001 C29.7109604,24.7452022 29.0534926,25.1021986 28.3107864,25.3962001 C27.5680801,25.6902016 26.7949467,25.8971995 25.9913629,26.0172001 C25.5286934,26.9292047 25.0112419,27.8441955 24.4389928,28.7622001 C23.8667438,29.6802047 23.1971006,30.5351961 22.4300434,31.3272001 C23.087521,31.5552012 23.741945,31.7381994 24.3933349,31.8762001 C25.0447248,32.0142008 25.6839296,32.0682002 26.3109685,32.0382001 C26.9380074,32.0081999 27.5467738,31.8762013 28.1372862,31.6422001 C28.7277985,31.4081989 29.2848198,31.0332027 29.8083669,30.5172001 C29.7353138,31.4172046 29.5800783,32.1701971 29.3426559,32.7762001 C29.1052334,33.3822031 28.8252008,33.8771982 28.5025497,34.2612001 C28.1798986,34.645202 27.8298579,34.9361991 27.452417,35.1342001 C27.0749762,35.3322011 26.7066724,35.4701997 26.3474948,35.5482001 C25.9883172,35.6262005 25.6595833,35.6652001 25.3612833,35.6652001 C25.0629832,35.6652001 24.8346958,35.6592002 24.6764141,35.6472001 C23.6658466,35.5871998 22.7709599,35.3352023 21.9917271,34.8912001 C21.2124944,34.4471979 20.4941499,33.931203 19.8366723,33.3432001 C19.1061415,33.7392021 18.3147451,34.045199 17.4624593,34.2612001 C16.6101734,34.4772012 15.6665854,34.5732002 14.6316668,34.5492001 C13.9254871,34.5372 13.328896,34.4322011 12.8418755,34.2342001 C12.354855,34.0361991 11.9682883,33.7902016 11.6821637,33.4962001 C11.3960392,33.2021986 11.2012339,32.8842018 11.0977421,32.5422001 C10.9942502,32.2001984 10.9729434,31.8732017 11.033821,31.5612001 C11.1434006,31.0091973 11.3442935,30.5562019 11.6365058,30.2022001 C11.9287181,29.8481983 12.2818027,29.5722011 12.6957701,29.3742001 C13.1097375,29.1761991 13.5693562,29.0502004 14.0746399,28.9962001 C14.5799237,28.9421998 15.0882437,28.9331999 15.5996152,28.9692001 C16.0014071,29.0052003 16.4275436,29.0891994 16.8780376,29.2212001 C17.3285315,29.3532008 17.7972817,29.5091992 18.2843022,29.6892001 C18.6982696,29.1491974 19.0970117,28.5642032 19.4805403,27.9342001 C19.8640689,27.3041969 20.2323727,26.6232038 20.5854625,25.8912001 Z M13.6089289,33.0192001 C14.22988,32.9591998 14.8416903,32.7552018 15.4443782,32.4072001 C16.0470661,32.0591984 16.6406134,31.5792032 17.225038,30.9672001 C16.798895,30.6191984 16.3697147,30.3402011 15.937484,30.1302001 C15.5052533,29.920199 15.0517223,29.8272 14.5768773,29.8512001 C14.1020323,29.8752002 13.6850273,29.9711993 13.3258497,30.1392001 C12.9666721,30.3072009 12.6805518,30.5111989 12.4674804,30.7512001 C12.2544089,30.9912013 12.1143926,31.2491987 12.0474273,31.5252001 C11.980462,31.8012015 11.9926373,32.053199 12.0839536,32.2812001 C12.17527,32.5092012 12.3457246,32.6951994 12.5953226,32.8392001 C12.8449206,32.9832008 13.182786,33.0432002 13.6089289,33.0192001 Z M30.3197358,19.9332001 C29.9544705,19.9332001 29.6166051,20.0621988 29.3061295,20.3202001 C28.9956539,20.5782014 28.6943145,20.9321978 28.4021022,21.3822001 C28.1098899,21.8322023 27.8146382,22.3571971 27.5163382,22.9572001 C27.2180381,23.5572031 26.9045234,24.1931967 26.5757845,24.8652001 C27.1602091,24.7331994 27.7202743,24.5442013 28.2559968,24.2982001 C28.7917194,24.0521989 29.2665572,23.7642017 29.6805246,23.4342001 C30.094492,23.1041984 30.4323574,22.7322022 30.6941309,22.3182001 C30.9559045,21.904198 31.0989646,21.4632024 31.1233156,20.9952001 C31.1476666,20.7311988 31.0807023,20.4882012 30.9224207,20.2662001 C30.764139,20.044199 30.5632461,19.9332001 30.3197358,19.9332001 Z M43.4029345,23.2691441 C43.2690038,23.5371635 43.1320314,23.8147508 42.992013,24.1019144 C42.8519946,24.389078 42.7363289,24.6730466 42.6450126,24.9538288 C42.5536963,25.234611 42.4989073,25.505817 42.480644,25.767455 C42.4623807,26.0290929 42.5202136,26.2747736 42.6541442,26.5045045 C42.4715115,26.4789789 42.2949692,26.4502629 42.1245121,26.4183559 C41.9540549,26.3864488 41.7470743,26.3258263 41.503564,26.2364865 C40.9434905,26.0578069 40.5417046,25.8248888 40.2981944,25.5377252 C40.0546841,25.2505616 39.9268432,24.9251144 39.9146677,24.5613739 C39.9024921,24.1976333 39.9816318,23.8051823 40.152089,23.384009 C40.3225461,22.9628357 40.5417021,22.5289061 40.8095633,22.0822072 L40.8643529,21.9864865 C40.6938957,21.5525504 40.4412576,21.1888153 40.106431,20.8952703 C39.7716044,20.6017253 39.3363364,20.4868615 38.8006139,20.5506757 C38.4596995,20.5889642 38.1796669,20.6814933 37.9605077,20.8282658 C37.7413485,20.9750383 37.5678501,21.1473338 37.4400072,21.3451577 C37.3121643,21.5429815 37.2178055,21.7567556 37.1569279,21.9864865 C37.0960504,22.2162174 37.0595244,22.4395635 37.0473489,22.6565315 C37.0229978,23.0904676 37.1508388,23.479728 37.4308756,23.8243243 C37.7109124,24.1689206 38.0609531,24.5071305 38.4810083,24.838964 C38.9010634,25.1707975 39.3545945,25.5185793 39.8416149,25.8823198 C40.3286354,26.2460604 40.7699911,26.6576554 41.1656953,27.1171171 C41.5613994,27.5765789 41.877958,28.1062282 42.1153805,28.7060811 C42.352803,29.3059339 42.4288988,30.0142602 42.3436702,30.8310811 C42.3193192,31.0863376 42.2523549,31.3926409 42.1427752,31.75 C42.0331956,32.1073591 41.8596972,32.4774756 41.6222747,32.8603604 C41.3848522,33.2432452 41.0682936,33.6197429 40.6725895,33.9898649 C40.2768854,34.3599868 39.7898722,34.695006 39.2115353,34.9949324 C38.6331985,35.2948589 37.9422486,35.5373489 37.1386648,35.7224099 C36.335081,35.9074709 35.4097559,36 34.3626619,36 C34.1922047,36 33.9426104,35.980856 33.6138716,35.9425676 C33.2851328,35.9042791 32.9290044,35.8340846 32.5454758,35.731982 C32.1619471,35.6298794 31.7723366,35.4862997 31.3766324,35.3012387 C30.9809283,35.1161778 30.6217561,34.880069 30.299105,34.5929054 C29.9764539,34.3057418 29.7177282,33.95796 29.52292,33.5495495 C29.3281118,33.1411391 29.2428845,32.6625403 29.2672355,32.1137387 C29.279411,31.7563796 29.3463753,31.3926445 29.4681304,31.0225225 C29.5898856,30.6524006 29.7786032,30.3110001 30.0342889,29.9983108 C30.2899747,29.6856216 30.6278401,29.4271782 31.0478952,29.222973 C31.4679504,29.0187677 31.9884458,28.903904 32.6093969,28.8783784 C32.9381357,28.8656156 33.2638258,28.9070941 33.5864768,29.0028153 C33.9091279,29.0985365 34.1952482,29.2261629 34.4448462,29.3856982 C34.6944442,29.5452335 34.8983809,29.7366731 35.0566626,29.9600225 C35.2149442,30.183372 35.2940839,30.4099088 35.2940839,30.6396396 C35.2088553,30.5758255 35.032313,30.5758255 34.7644518,30.6396396 C34.4965905,30.7034538 34.2135141,30.8278895 33.915214,31.0129505 C33.616914,31.1980114 33.3460129,31.4500735 33.1025027,31.7691441 C32.8589924,32.0882148 32.7189761,32.4710939 32.6824496,32.9177928 C32.6702741,33.1092352 32.6946247,33.3293906 32.7555023,33.5782658 C32.8163799,33.8271409 32.922914,34.060059 33.0751079,34.277027 C33.2273018,34.4939951 33.4251509,34.6790533 33.6686611,34.8322072 C33.9121714,34.9853611 34.210467,35.0683183 34.5635568,35.0810811 C34.8557691,35.0810811 35.129714,35.0204586 35.3853998,34.8992117 C35.6410855,34.7779649 35.869373,34.6120506 36.0702689,34.401464 C36.2711649,34.1908773 36.4385756,33.9356246 36.5725063,33.6356982 C36.7064369,33.3357718 36.7977519,33.0135152 36.8464539,32.6689189 C36.9073315,32.0818289 36.8312357,31.5521795 36.6181642,31.079955 C36.4050928,30.6077304 36.1250602,30.1578475 35.7780581,29.7302928 C35.431056,29.3027381 35.0475331,28.8879525 34.6274779,28.4859234 C34.2074228,28.0838944 33.8238999,27.6595368 33.4768978,27.2128378 C33.1298957,26.7661389 32.8498631,26.2811588 32.6367916,25.7578829 C32.4237202,25.234607 32.3476244,24.6411445 32.4085019,23.9774775 C32.481555,23.1989451 32.7128863,22.5129534 33.1025027,21.919482 C33.492119,21.3260105 33.9700007,20.8314584 34.536162,20.4358108 C35.1023234,20.0401632 35.726309,19.7466226 36.4081377,19.5551802 C37.0899664,19.3637378 37.7596095,19.2743993 38.4170871,19.2871622 C38.6849484,19.299925 38.9619372,19.3254503 39.2480617,19.3637387 C39.5341862,19.4020272 39.8142188,19.4626497 40.0881678,19.5456081 C40.3621169,19.6285665 40.6177988,19.7306676 40.8552213,19.8519144 C41.0926438,19.9731613 41.3026682,20.1231222 41.4853009,20.3018018 C41.5948805,19.8295772 41.6253188,19.3956476 41.5766168,19 C41.6374943,19.0382885 41.7562038,19.0925297 41.9327487,19.1627252 C42.1092936,19.2329208 42.3010551,19.3126872 42.5080388,19.402027 C43.0072348,19.6445207 43.3694508,19.922108 43.5946978,20.2347973 C43.8199448,20.5474865 43.9508296,20.8761244 43.9873561,21.2207207 C44.0238826,21.565317 43.981269,21.9130988 43.8595139,22.2640766 C43.7377588,22.6150543 43.5855671,22.9500735 43.4029345,23.2691441 Z"/>
    <rect width="54" height="52" x=".5" y=".5" stroke="#646464"/>
  </g>
</svg>
