<?xml version="1.0" standalone="no"?>
<!DOCTYPE svg PUBLIC "-//W3C//DTD SVG 20010904//EN"
 "http://www.w3.org/TR/2001/REC-SVG-20010904/DTD/svg10.dtd">
<svg version="1.0" xmlns="http://www.w3.org/2000/svg"
 width="880.000000pt" height="880.000000pt" viewBox="0 0 880.000000 880.000000"
 preserveAspectRatio="xMidYMid meet">
<metadata>
Created by potrace 1.11, written by Peter Selinger 2001-2013
</metadata>
<g transform="translate(0.000000,880.000000) scale(0.100000,-0.100000)"
fill="#000000" stroke="none">
<path d="M0 4400 l0 -4240 4400 0 4400 0 0 4240 0 4240 -4400 0 -4400 0 0
-4240z m250 4080 c17 5 32 5 35 0 3 -5 16 -5 30 0 15 6 27 6 30 0 3 -6 15 -6
30 0 15 6 25 6 25 0 0 -5 12 -5 30 0 17 5 30 5 30 0 0 -5 13 -5 30 0 17 5 30
5 30 0 0 -5 13 -5 30 0 17 5 30 6 30 2 0 -8 83 -7 105 2 8 3 17 1 20 -3 2 -5
19 -5 37 -2 18 4 50 4 71 0 20 -3 37 -3 37 1 0 4 16 4 34 0 19 -4 38 -5 41 -2
3 3 24 5 48 4 23 -2 48 -2 55 -2 6 0 19 0 27 0 8 0 22 0 30 0 8 0 22 0 30 0 8
0 22 0 30 0 8 0 22 0 30 0 8 0 22 0 30 0 8 0 22 0 30 0 8 0 22 0 30 0 8 0 22
0 30 0 8 0 22 0 30 0 8 0 22 0 30 0 8 0 22 0 30 0 8 0 22 0 30 0 8 0 22 0 30
0 8 0 22 0 30 0 8 0 22 0 30 0 8 0 22 0 30 0 8 0 30 -1 48 -2 17 -2 42 0 54 4
12 4 25 3 27 -1 3 -5 20 -5 38 -2 18 4 50 4 71 0 20 -3 37 -3 37 1 0 4 16 4
34 0 19 -4 38 -5 41 -2 7 7 84 6 92 -1 3 -4 14 -2 24 3 11 7 20 7 24 0 3 -5
15 -6 28 -1 12 5 34 5 49 0 16 -4 28 -4 28 1 0 5 13 5 30 0 17 -5 30 -5 30 0
0 5 13 5 30 0 17 -5 30 -5 30 0 0 5 13 5 30 0 18 -5 30 -5 30 0 0 6 10 6 24 0
13 -5 27 -6 30 -3 8 8 76 9 76 1 0 -4 13 -3 30 2 17 5 30 6 30 2 0 -8 83 -7
105 2 8 3 17 1 20 -3 2 -5 19 -5 37 -2 18 4 50 4 71 0 20 -3 37 -3 37 1 0 4
16 4 34 0 19 -4 38 -5 41 -2 3 3 24 5 48 4 23 -2 48 -2 55 -2 6 0 19 0 27 0 8
0 22 0 30 0 8 0 22 0 30 0 8 0 22 0 30 0 8 0 22 0 30 0 8 0 22 0 30 0 8 0 22
0 30 0 8 0 22 0 30 0 8 0 22 0 30 0 8 0 22 0 30 0 8 0 22 0 30 0 8 0 22 0 30
0 8 0 22 0 30 0 8 0 22 0 30 0 8 0 22 0 30 0 8 0 22 0 30 0 8 0 22 0 30 0 8 0
30 -1 48 -2 17 -2 42 0 54 4 12 4 25 3 27 -1 3 -5 20 -5 38 -2 18 4 50 4 71 0
20 -3 37 -3 37 1 0 4 16 4 34 0 19 -4 38 -5 41 -2 7 7 84 6 92 -1 3 -4 14 -2
24 3 11 7 20 7 24 0 3 -5 15 -6 28 -1 12 5 34 5 49 0 16 -4 28 -4 28 1 0 5 13
5 30 0 17 -5 30 -5 30 0 0 5 13 5 30 0 17 -5 30 -5 30 0 0 5 13 5 30 0 18 -5
30 -5 30 0 0 6 10 6 24 0 13 -5 27 -6 30 -3 8 8 76 9 76 1 0 -4 14 -3 30 2 16
5 30 6 30 2 0 -8 83 -7 105 2 8 3 17 1 20 -3 2 -5 19 -5 37 -2 18 4 50 4 71 0
20 -3 37 -3 37 1 0 4 16 4 34 0 19 -4 38 -5 41 -2 3 3 24 5 48 4 23 -2 48 -2
55 -2 6 0 19 0 27 0 8 0 22 0 30 0 8 0 22 0 30 0 8 0 22 0 30 0 8 0 22 0 30 0
8 0 22 0 30 0 8 0 22 0 30 0 8 0 22 0 30 0 8 0 22 0 30 0 8 0 22 0 30 0 8 0
22 0 30 0 8 0 22 0 30 0 8 0 22 0 30 0 8 0 22 0 30 0 8 0 22 0 30 0 8 0 22 0
30 0 8 0 22 0 30 0 8 0 30 -1 48 -2 17 -2 42 0 54 4 12 4 25 3 27 -1 3 -5 20
-5 38 -2 18 4 50 4 71 0 20 -3 37 -3 37 1 0 4 16 4 34 0 19 -4 38 -5 41 -2 7
7 84 6 92 -1 3 -4 14 -2 24 3 11 7 20 7 24 0 3 -5 15 -6 28 -1 12 5 34 5 49 0
16 -4 28 -4 28 1 0 5 13 5 30 0 17 -5 30 -5 30 0 0 5 13 5 30 0 17 -5 30 -5
30 0 0 5 13 5 30 0 18 -5 30 -5 30 0 0 6 10 6 24 0 13 -5 27 -6 30 -3 8 8 76
9 76 1 0 -4 13 -3 30 2 16 5 30 6 30 2 0 -8 83 -7 105 2 8 3 17 1 20 -3 2 -5
19 -5 37 -2 18 4 50 4 71 0 20 -3 37 -3 37 1 0 4 16 4 34 0 19 -4 38 -5 41 -2
3 3 24 5 48 4 23 -2 48 -2 55 -2 6 0 19 0 27 0 8 0 22 0 30 0 8 0 22 0 30 0 8
0 22 0 30 0 8 0 22 0 30 0 8 0 22 0 30 0 8 0 22 0 30 0 8 0 22 0 30 0 8 0 22
0 30 0 8 0 22 0 30 0 8 0 22 0 30 0 8 0 22 0 30 0 8 0 22 0 30 0 8 0 22 0 30
0 8 0 22 0 30 0 8 0 22 0 30 0 8 0 22 0 30 0 8 0 30 -1 48 -2 17 -2 42 0 54 4
12 4 25 3 27 -1 3 -5 20 -5 38 -2 18 4 50 4 71 0 20 -3 37 -3 37 1 0 4 16 4
34 0 19 -4 38 -5 41 -2 7 7 84 6 92 -1 3 -4 14 -2 24 3 11 7 20 7 24 0 3 -5
15 -6 28 -1 12 5 34 5 49 0 16 -4 28 -4 28 1 0 5 13 5 30 0 17 -5 30 -5 30 0
0 5 13 5 30 0 17 -5 30 -5 30 0 0 5 13 5 30 0 18 -5 30 -5 30 0 0 6 10 6 24 0
13 -5 27 -6 30 -3 8 8 76 9 76 1 0 -4 14 -3 30 2 16 5 30 6 30 2 0 -8 83 -7
105 2 8 3 17 1 20 -3 2 -5 19 -5 37 -2 18 4 50 4 71 0 20 -3 37 -3 37 2 0 4
13 4 29 -1 15 -4 34 -4 41 0 17 11 36 3 38 -15 4 -49 3 -106 -3 -115 -3 -5 -2
-10 4 -10 6 0 6 -11 1 -30 -5 -17 -5 -30 0 -30 5 0 5 -13 0 -30 -5 -16 -5 -30
-1 -30 4 0 5 -22 1 -48 -3 -27 -3 -61 1 -75 4 -15 3 -27 -1 -27 -5 0 -5 -13 0
-30 5 -17 5 -30 0 -30 -5 0 -5 -13 0 -30 5 -17 5 -30 0 -30 -5 0 -5 -13 0 -30
5 -17 5 -30 0 -30 -5 0 -5 -13 0 -30 5 -16 6 -30 2 -30 -4 0 -7 -16 -7 -35 0
-19 3 -35 7 -35 4 0 3 -13 -2 -30 -5 -17 -5 -30 0 -30 5 0 5 -13 0 -30 -5 -17
-5 -30 0 -30 5 0 5 -13 0 -30 -5 -16 -5 -30 -1 -30 4 0 4 -27 1 -60 -3 -33 -3
-60 1 -60 4 0 4 -13 -1 -30 -5 -16 -6 -30 -2 -30 4 0 7 -16 7 -35 0 -19 -3
-35 -7 -35 -4 0 -3 -13 2 -30 5 -17 5 -30 0 -30 -5 0 -5 -13 0 -30 5 -17 5
-30 0 -30 -5 0 -5 -13 0 -30 5 -17 5 -30 0 -30 -5 0 -5 -13 0 -30 5 -17 5 -30
0 -30 -5 0 -5 -13 0 -29 4 -15 4 -34 0 -42 -5 -7 -5 -20 0 -29 5 -9 5 -22 0
-30 -4 -7 -6 -20 -2 -28 7 -19 7 -80 0 -88 -3 -3 -2 -21 2 -40 4 -18 4 -34 0
-34 -4 0 -4 -17 -1 -37 4 -21 4 -55 1 -75 -4 -21 -3 -38 1 -38 4 0 4 -12 1
-27 -4 -16 -6 -41 -5 -58 2 -16 3 -36 3 -42 0 -7 0 -20 0 -28 0 -8 0 -22 0
-30 0 -8 0 -22 0 -30 0 -8 0 -22 0 -30 0 -8 0 -22 0 -30 0 -8 0 -22 0 -30 0
-8 0 -22 0 -30 0 -8 0 -22 0 -30 0 -8 0 -22 0 -30 0 -8 0 -22 0 -30 0 -8 0
-22 0 -30 0 -8 0 -22 0 -30 0 -8 0 -22 0 -30 0 -8 0 -22 0 -30 0 -8 0 -22 0
-30 0 -8 0 -22 0 -30 0 -8 0 -21 0 -27 0 -7 0 -32 2 -55 1 -24 -1 -45 -4 -48
-3 -3 -2 -22 2 -41 4 -18 5 -34 1 -34 -5 0 -5 -17 -1 -37 3 -21 3 -55 -1 -75
-3 -21 -3 -38 2 -38 5 0 6 -6 3 -14 -8 -21 -10 -106 -2 -106 4 0 3 -13 -2 -30
-5 -16 -6 -30 -2 -30 4 0 7 -16 7 -35 0 -19 -3 -35 -7 -35 -4 0 -3 -13 2 -30
5 -17 5 -30 0 -30 -5 0 -5 -13 0 -30 5 -17 5 -30 0 -30 -5 0 -5 -13 0 -30 5
-17 5 -30 0 -30 -5 0 -5 -13 0 -30 5 -17 5 -30 0 -30 -5 0 -5 -13 0 -29 4 -15
4 -34 0 -42 -5 -7 -5 -20 0 -29 5 -9 5 -22 0 -30 -5 -8 -5 -21 -1 -29 4 -9 4
-32 1 -51 -3 -19 -3 -47 1 -62 4 -16 4 -28 -1 -28 -5 0 -5 -13 0 -30 5 -17 5
-30 0 -30 -5 0 -5 -13 0 -30 5 -17 5 -30 0 -30 -5 0 -5 -13 0 -30 5 -17 5 -30
0 -30 -5 0 -5 -13 0 -30 5 -16 6 -30 2 -30 -4 0 -7 -16 -7 -35 0 -19 3 -35 7
-35 4 0 3 -13 -2 -30 -5 -17 -5 -30 0 -30 5 0 5 -13 0 -30 -5 -17 -5 -30 0
-30 5 0 5 -13 0 -30 -5 -16 -5 -30 -1 -30 4 0 5 -22 1 -48 -3 -27 -3 -61 1
-75 4 -15 3 -27 -1 -27 -5 0 -5 -13 0 -30 5 -17 5 -30 0 -30 -5 0 -5 -13 0
-30 5 -17 5 -30 0 -30 -5 0 -5 -13 0 -30 5 -17 5 -30 0 -30 -5 0 -5 -13 0 -30
5 -16 6 -30 2 -30 -4 0 -7 -16 -7 -35 0 -19 3 -35 7 -35 4 0 3 -13 -2 -30 -5
-17 -5 -30 0 -30 5 0 5 -13 0 -30 -5 -17 -5 -30 0 -30 5 0 5 -13 0 -30 -5 -16
-6 -30 -2 -30 8 0 7 -88 -1 -96 -2 -3 -1 -21 3 -40 4 -18 5 -34 1 -34 -5 0 -5
-17 -1 -37 3 -21 3 -55 -1 -75 -3 -21 -3 -38 2 -38 4 0 4 -12 1 -27 -4 -16 -6
-41 -5 -58 2 -16 3 -36 3 -42 0 -7 0 -20 0 -28 0 -8 0 -22 0 -30 0 -8 0 -22 0
-30 0 -8 0 -22 0 -30 0 -8 0 -22 0 -30 0 -8 0 -22 0 -30 0 -8 0 -22 0 -30 0
-8 0 -22 0 -30 0 -8 0 -22 0 -30 0 -8 0 -22 0 -30 0 -8 0 -22 0 -30 0 -8 0
-22 0 -30 0 -8 0 -22 0 -30 0 -8 0 -22 0 -30 0 -8 0 -22 0 -30 0 -8 0 -22 0
-30 0 -8 0 -21 0 -27 0 -7 0 -32 2 -55 1 -24 -1 -45 -4 -48 -3 -3 -2 -22 2
-41 4 -18 5 -34 1 -34 -5 0 -5 -17 -1 -37 3 -21 3 -55 -1 -75 -3 -21 -3 -38 2
-38 4 0 4 -13 -1 -28 -4 -16 -4 -36 1 -45 6 -9 6 -18 0 -21 -5 -3 -5 -21 -1
-41 4 -19 5 -35 1 -35 -5 0 -5 -17 -1 -37 3 -21 3 -55 -1 -75 -3 -21 -3 -38 2
-38 4 0 4 -12 1 -27 -4 -16 -6 -41 -5 -58 2 -16 3 -36 3 -42 0 -7 0 -20 0 -28
0 -8 0 -22 0 -30 0 -8 0 -22 0 -30 0 -8 0 -22 0 -30 0 -8 0 -22 0 -30 0 -8 0
-22 0 -30 0 -8 0 -22 0 -30 0 -8 0 -22 0 -30 0 -8 0 -22 0 -30 0 -8 0 -22 0
-30 0 -8 0 -22 0 -30 0 -8 0 -22 0 -30 0 -8 0 -22 0 -30 0 -8 0 -22 0 -30 0
-8 0 -22 0 -30 0 -8 0 -22 0 -30 0 -8 0 -21 0 -27 0 -7 0 -32 2 -55 1 -24 -1
-45 -4 -48 -3 -3 -2 -22 2 -41 4 -18 4 -34 0 -34 -4 0 -4 -17 -1 -38 4 -20 4
-54 1 -74 -4 -21 -3 -38 1 -38 5 0 6 -6 3 -14 -9 -24 -10 -79 -3 -108 4 -16 4
-28 -1 -28 -5 0 -5 -13 0 -30 5 -17 5 -30 0 -30 -5 0 -5 -13 0 -30 5 -17 5
-30 0 -30 -5 0 -5 -13 0 -30 5 -17 5 -30 0 -30 -5 0 -5 -13 0 -30 5 -16 6 -30
2 -30 -4 0 -7 -16 -7 -35 0 -19 3 -35 7 -35 4 0 3 -13 -2 -30 -5 -17 -5 -30 0
-30 5 0 5 -13 0 -30 -5 -17 -5 -30 0 -30 5 0 5 -13 0 -30 -5 -16 -5 -30 -1
-30 4 0 4 -27 1 -60 -3 -33 -3 -66 1 -72 4 -6 3 -23 -1 -39 -6 -19 -4 -29 3
-32 7 -3 1 -9 -13 -15 -14 -5 -29 -7 -34 -4 -12 7 -76 9 -76 2 0 -3 -18 -5
-40 -5 -22 0 -40 3 -40 7 0 4 -13 3 -30 -2 -16 -5 -30 -5 -30 -1 0 4 -27 4
-60 1 -33 -3 -60 -3 -60 1 0 4 -14 4 -30 -1 -17 -5 -30 -5 -30 0 0 5 -13 5
-30 0 -17 -5 -30 -5 -30 0 0 5 -13 5 -29 0 -15 -4 -33 -5 -39 -1 -6 4 -39 4
-72 1 -33 -3 -60 -3 -60 1 0 4 -14 4 -30 -1 -17 -5 -30 -5 -30 0 0 5 -13 5
-30 0 -17 -5 -30 -5 -30 0 0 5 -13 5 -29 0 -15 -4 -33 -5 -39 -1 -6 4 -39 4
-72 1 -33 -3 -60 -3 -60 1 0 4 -13 4 -30 -1 -17 -5 -30 -5 -30 0 0 5 -13 5
-30 0 -17 -5 -30 -5 -30 0 0 5 -13 5 -29 0 -15 -4 -33 -5 -39 -1 -6 4 -39 4
-72 1 -33 -3 -60 -3 -60 1 0 4 -13 4 -30 -1 -17 -5 -30 -5 -30 0 0 5 -13 5
-30 0 -17 -5 -30 -5 -30 0 0 5 -13 5 -29 0 -15 -4 -34 -4 -42 0 -7 5 -16 7
-19 5 -8 -5 -85 -7 -132 -3 -21 2 -38 1 -38 -2 0 -6 -109 -3 -127 4 -7 3 -15
1 -18 -4 -3 -5 -16 -6 -28 -1 -12 4 -35 5 -52 1 -16 -3 -44 -3 -62 1 -18 4
-34 4 -37 2 -9 -9 -96 -9 -96 0 0 5 -4 5 -10 2 -13 -8 -108 -11 -116 -3 -3 4
-17 3 -30 -2 -14 -6 -26 -6 -29 0 -4 6 -13 7 -24 1 -9 -5 -23 -6 -30 -2 -7 5
-27 5 -44 1 -18 -3 -46 -3 -64 1 -18 4 -35 4 -38 1 -5 -5 -41 -5 -117 0 -21 2
-38 1 -38 -2 0 -3 -18 -5 -40 -5 -22 0 -40 3 -40 7 0 4 -13 3 -30 -2 -16 -5
-30 -5 -30 -1 0 4 -27 4 -60 1 -33 -3 -60 -3 -60 1 0 4 -13 4 -30 -1 -17 -5
-30 -5 -30 0 0 5 -13 5 -30 0 -17 -5 -30 -5 -30 0 0 5 -13 5 -29 0 -15 -4 -33
-5 -39 -1 -6 4 -39 4 -72 1 -33 -3 -60 -3 -60 1 0 4 -13 4 -30 -1 -17 -5 -30
-5 -30 0 0 5 -13 5 -30 0 -17 -5 -30 -5 -30 0 0 5 -13 5 -29 0 -15 -4 -33 -5
-39 -1 -6 4 -39 4 -72 1 -33 -3 -60 -3 -60 1 0 4 -13 4 -30 -1 -17 -5 -30 -5
-30 0 0 5 -13 5 -30 0 -17 -5 -30 -5 -30 0 0 5 -13 5 -29 0 -15 -4 -33 -5 -39
-1 -6 4 -39 4 -72 1 -33 -3 -60 -3 -60 1 0 4 -14 4 -30 -1 -17 -5 -30 -5 -30
0 0 5 -13 5 -30 0 -17 -5 -30 -5 -30 0 0 5 -13 5 -29 0 -15 -4 -34 -4 -42 0
-7 5 -16 7 -19 5 -8 -5 -85 -7 -132 -3 -21 2 -38 1 -38 -2 0 -6 -109 -3 -127
4 -7 3 -15 1 -18 -4 -3 -5 -16 -6 -28 -1 -12 4 -35 5 -52 1 -16 -3 -44 -3 -62
1 -18 4 -34 4 -37 2 -9 -9 -96 -9 -96 0 0 5 -4 5 -10 2 -13 -8 -108 -11 -116
-3 -3 4 -17 3 -30 -2 -14 -6 -26 -6 -29 0 -4 6 -13 7 -24 1 -9 -5 -23 -6 -30
-2 -7 5 -27 5 -44 1 -18 -3 -46 -3 -64 1 -18 4 -35 4 -38 1 -5 -5 -41 -5 -117
0 -21 2 -38 1 -38 -2 0 -3 -18 -5 -40 -5 -22 0 -40 3 -40 7 0 4 -13 3 -30 -2
-16 -5 -30 -5 -30 -1 0 4 -27 4 -60 1 -33 -3 -60 -3 -60 1 0 4 -13 4 -30 -1
-17 -5 -30 -5 -30 0 0 5 -13 5 -30 0 -17 -5 -30 -5 -30 0 0 5 -13 5 -29 0 -15
-4 -33 -5 -39 -1 -6 4 -39 4 -72 1 -33 -3 -60 -3 -60 1 0 4 -13 4 -30 -1 -17
-5 -30 -5 -30 0 0 5 -13 5 -30 0 -17 -5 -30 -5 -30 0 0 5 -13 5 -29 0 -15 -4
-33 -5 -39 -1 -6 4 -39 4 -72 1 -33 -3 -60 -3 -60 1 0 4 -13 4 -30 -1 -17 -5
-30 -5 -30 0 0 5 -13 5 -30 0 -17 -5 -30 -5 -30 0 0 5 -13 5 -29 0 -15 -4 -33
-5 -39 -1 -6 4 -39 4 -72 1 -33 -3 -60 -3 -60 1 0 4 -13 4 -30 -1 -17 -5 -30
-5 -30 0 0 5 -13 5 -30 0 -17 -5 -30 -5 -30 0 0 5 -13 5 -29 0 -15 -4 -34 -4
-42 0 -7 5 -16 7 -19 5 -8 -5 -85 -7 -132 -3 -21 2 -38 1 -38 -2 0 -6 -109 -3
-127 4 -7 3 -15 1 -18 -4 -3 -5 -16 -6 -28 -1 -12 4 -35 5 -52 1 -16 -3 -44
-3 -62 1 -18 4 -34 4 -37 2 -9 -9 -96 -9 -96 0 0 5 -4 5 -10 2 -13 -8 -108
-11 -116 -3 -3 4 -17 3 -30 -2 -14 -6 -26 -6 -29 0 -4 6 -13 7 -24 1 -9 -5
-23 -6 -30 -2 -7 5 -27 5 -44 1 -18 -3 -46 -3 -64 1 -18 4 -35 4 -38 1 -5 -5
-41 -5 -117 0 -21 2 -38 1 -38 -2 0 -3 -18 -5 -40 -5 -22 0 -40 3 -40 7 0 4
-14 3 -30 -2 -17 -5 -30 -5 -30 -1 0 4 -27 4 -60 1 -33 -3 -60 -3 -60 1 0 4
-13 4 -30 -1 -17 -5 -30 -5 -30 0 0 5 -13 5 -30 0 -17 -5 -30 -5 -30 0 0 5
-13 5 -29 0 -15 -4 -33 -5 -39 -1 -6 4 -39 4 -72 1 -33 -3 -60 -3 -60 1 0 4
-14 4 -30 -1 -17 -5 -30 -5 -30 0 0 4 -8 7 -17 6 -13 -1 -18 7 -18 26 -1 15
-4 30 -7 34 -4 3 -3 16 2 28 4 13 5 29 0 36 -4 7 -4 26 0 41 5 16 5 29 0 29
-5 0 -5 13 0 30 5 17 6 30 2 30 -8 0 -7 88 1 96 2 3 1 21 -3 40 -4 18 -5 34
-1 34 7 0 5 119 -2 127 -3 2 -1 18 3 34 5 16 5 29 0 29 -5 0 -5 13 0 30 5 17
5 30 0 30 -5 0 -5 13 0 30 5 17 6 30 2 30 -8 0 -7 88 1 96 2 3 1 21 -3 40 -4
18 -5 34 -1 34 7 0 6 119 -2 127 -3 3 -2 16 3 29 5 13 6 26 0 29 -5 3 -5 18 0
35 5 17 5 30 0 30 -5 0 -5 13 0 30 5 17 6 30 2 30 -8 0 -7 88 1 96 2 3 1 21
-3 40 -4 18 -5 34 -1 34 7 0 5 119 -2 127 -3 2 -1 18 3 34 5 16 5 29 0 29 -5
0 -5 13 0 30 5 17 5 30 0 30 -5 0 -5 13 0 30 5 17 6 30 2 30 -8 0 -7 88 1 96
2 3 1 21 -3 40 -4 18 -5 34 -1 34 7 0 6 119 -2 127 -3 3 -2 16 3 29 5 13 6 26
0 29 -5 3 -5 18 0 35 5 17 5 30 0 30 -5 0 -5 13 0 30 5 17 6 30 2 30 -8 0 -7
88 1 96 2 3 1 21 -3 40 -4 18 -5 34 -1 34 7 0 5 119 -2 127 -3 2 -1 18 3 34 5
16 5 29 0 29 -5 0 -5 13 0 30 5 17 5 30 0 30 -5 0 -5 13 0 30 5 17 6 30 2 30
-8 0 -7 88 1 96 2 3 1 21 -3 40 -4 18 -5 34 -1 34 7 0 6 119 -2 127 -3 3 -2
16 3 29 5 13 6 26 0 29 -5 3 -5 18 0 35 5 17 5 30 0 30 -5 0 -5 13 0 30 5 17
6 30 2 30 -8 0 -7 88 1 96 2 3 1 21 -3 40 -4 18 -5 34 -1 34 7 0 5 119 -2 127
-3 2 -1 18 3 34 5 16 5 29 0 29 -5 0 -5 13 0 30 5 17 5 30 0 30 -5 0 -5 13 0
30 5 17 6 30 2 30 -8 0 -7 88 1 96 2 3 1 21 -3 40 -4 18 -5 34 -1 34 7 0 6
119 -2 127 -3 3 -2 16 3 29 5 13 6 26 0 29 -5 3 -5 18 0 35 5 17 5 30 0 30 -5
0 -5 13 0 30 5 17 6 30 2 30 -8 0 -7 88 1 96 2 3 1 21 -3 40 -4 18 -5 34 -1
34 7 0 5 119 -2 127 -3 2 -1 18 3 34 5 16 5 29 0 29 -5 0 -5 13 0 30 5 17 5
30 0 30 -5 0 -5 13 0 30 5 17 6 30 2 30 -8 0 -7 88 1 96 2 3 1 21 -3 40 -4 18
-5 34 -1 34 7 0 6 119 -2 127 -3 3 -2 16 3 29 5 13 6 26 0 29 -5 3 -5 18 0 35
5 17 5 30 0 30 -5 0 -5 13 0 30 5 17 6 30 2 30 -8 0 -7 88 1 96 2 3 1 21 -3
40 -4 18 -5 34 -1 34 7 0 5 119 -2 127 -3 2 -1 18 3 34 5 16 5 29 0 29 -5 0
-5 13 0 30 5 17 5 30 0 30 -5 0 -5 13 0 30 5 17 6 30 2 30 -8 0 -7 88 1 96 2
3 1 21 -3 40 -4 18 -5 34 -1 34 7 0 6 119 -2 127 -3 3 -2 16 3 29 5 13 6 26 0
29 -5 3 -5 18 0 35 5 17 5 30 0 30 -5 0 -5 13 0 30 5 17 6 30 2 30 -8 0 -7 88
1 96 2 3 1 21 -3 40 -4 18 -5 34 -1 34 7 0 5 119 -2 127 -3 2 -1 18 3 34 5 16
5 29 0 29 -5 0 -5 13 0 30 5 17 5 30 0 30 -5 0 -5 13 0 30 5 17 6 30 2 30 -8
0 -7 88 1 96 2 3 1 21 -3 40 -4 18 -5 34 -1 34 7 0 6 119 -2 127 -3 3 -2 16 3
29 5 13 6 26 0 29 -5 3 -5 18 0 35 5 17 5 30 0 30 -5 0 -5 13 0 30 5 17 6 30
2 30 -8 0 -7 88 1 96 2 3 1 21 -3 40 -4 18 -5 34 -1 34 7 0 5 119 -2 127 -3 2
-1 18 3 34 5 16 5 29 0 29 -5 0 -5 13 0 30 5 17 5 30 0 30 -5 0 -5 13 0 30 5
17 6 30 2 30 -8 0 -7 88 1 96 2 3 1 21 -3 40 -4 18 -5 34 -1 34 7 0 6 119 -2
127 -3 3 -2 16 3 29 5 13 6 26 0 29 -5 3 -5 18 0 35 5 17 5 30 0 30 -5 0 -5
13 0 30 5 17 6 30 2 30 -8 0 -7 88 1 96 2 3 1 21 -3 40 -4 18 -5 34 -1 34 4 0
7 10 7 22 -1 15 6 24 24 28 14 3 26 3 28 -1 2 -4 16 -4 32 1z"/>
<path d="M3070 5744 c-182 -43 -324 -159 -395 -324 -11 -24 -20 -47 -20 -50
-1 -3 -5 -23 -9 -45 -14 -66 -14 -176 1 -238 26 -113 75 -199 178 -311 26 -28
131 -106 144 -106 5 0 11 -4 13 -8 6 -14 152 -79 240 -107 l87 -27 -70 -137
c-39 -75 -80 -148 -90 -163 -11 -14 -19 -29 -19 -32 0 -8 -160 -248 -187 -283
l-18 -22 -105 35 c-119 39 -195 59 -260 70 -51 9 -312 9 -350 0 -14 -3 -36 -8
-50 -12 -137 -30 -274 -122 -325 -217 -11 -20 -23 -37 -27 -37 -5 0 -8 -7 -8
-15 0 -9 -9 -42 -20 -75 -21 -61 -21 -152 -2 -216 43 -139 224 -269 417 -300
50 -8 357 -13 369 -6 6 3 26 6 45 7 31 2 69 8 171 31 34 7 36 8 120 34 41 13
77 24 80 25 3 0 16 7 30 15 14 7 27 13 30 13 3 0 32 13 64 28 66 32 78 31 121
-9 26 -24 194 -145 250 -179 70 -44 225 -108 284 -118 19 -3 38 -8 43 -11 23
-14 285 -22 356 -11 150 23 277 87 372 186 59 60 135 181 150 235 4 15 9 9 20
-25 51 -160 184 -292 372 -368 31 -13 60 -22 63 -22 3 1 19 -6 35 -14 17 -9
30 -13 30 -10 0 3 8 2 18 -4 9 -5 35 -11 57 -15 22 -3 51 -8 65 -11 14 -3 55
-7 92 -9 36 -2 71 -7 77 -11 6 -3 11 -3 11 2 0 4 37 8 83 9 101 0 198 9 257
23 25 5 61 13 80 16 44 7 201 55 215 65 6 4 24 10 40 14 17 4 37 14 45 21 8 7
18 14 23 14 13 1 71 33 130 73 194 132 342 347 374 547 9 55 10 243 1 286 -38
186 -169 374 -378 540 -47 38 -86 72 -88 77 -2 4 -8 8 -14 8 -9 0 -61 40 -162
123 -54 44 -135 131 -157 166 -18 29 -50 126 -44 133 1 1 5 28 8 59 4 31 11
69 17 85 21 57 35 84 42 84 5 0 8 5 8 11 0 17 71 78 110 95 64 28 199 35 226
13 8 -6 14 -8 14 -4 0 9 43 -19 80 -51 30 -27 95 -114 85 -114 -3 0 0 -9 8
-21 14 -18 10 -30 -45 -140 -33 -66 -61 -125 -62 -132 -1 -6 -4 -16 -8 -22
-11 -18 -22 -99 -20 -149 3 -57 40 -138 80 -174 52 -47 205 -108 313 -126 l36
-6 -12 52 c-7 29 -9 62 -5 73 4 11 6 23 3 27 -6 11 36 148 53 176 8 12 12 22
10 22 -3 0 24 57 59 128 101 202 108 224 109 327 0 84 -2 94 -34 154 -22 42
-52 78 -85 104 -49 39 -220 127 -247 127 -10 0 -14 -15 -14 -52 0 -58 -9 -126
-17 -134 -3 -3 -27 10 -54 29 -53 37 -157 81 -219 93 -21 3 -47 8 -58 10 -124
22 -268 22 -376 -1 -14 -3 -36 -7 -50 -9 -14 -2 -45 -11 -70 -20 -25 -9 -54
-19 -65 -21 -44 -10 -187 -89 -254 -140 -91 -69 -251 -278 -251 -327 0 -10 -5
-18 -12 -18 -6 0 -9 -3 -5 -6 3 -3 -1 -24 -9 -47 -20 -56 -27 -107 -27 -202
-1 -93 6 -144 26 -201 20 -56 78 -168 88 -172 5 -2 9 -9 9 -15 0 -7 13 -27 28
-46 15 -18 42 -52 61 -75 18 -22 83 -93 145 -157 141 -147 171 -182 223 -255
46 -67 101 -168 108 -199 2 -11 8 -33 13 -50 8 -29 8 -154 -1 -205 -2 -14 -17
-58 -33 -98 -50 -127 -166 -226 -280 -238 -27 -3 -55 -7 -61 -9 -7 -3 -13 0
-13 5 0 5 -7 7 -14 4 -8 -3 -43 8 -78 26 -75 38 -130 100 -156 180 -49 147 -9
279 120 395 50 46 168 102 228 109 25 2 46 5 47 5 8 3 -12 51 -37 91 -28 44
-133 130 -159 130 -6 0 -19 4 -29 9 -18 10 -46 21 -72 28 -39 11 -208 9 -264
-4 -85 -19 -172 -62 -229 -113 -47 -42 -97 -107 -111 -144 -6 -16 -4 -17 10
-6 16 14 16 14 -3 -105 -2 -16 -6 -41 -8 -55 -2 -14 -4 -25 -5 -25 -1 0 -4
-11 -6 -25 -10 -56 -39 -139 -45 -129 -18 30 6 228 37 303 6 16 0 14 -32 -10
-21 -16 -40 -32 -42 -36 -10 -23 -210 -107 -289 -122 -11 -3 -38 -8 -59 -12
-49 -9 -244 -9 -304 0 -55 8 -167 31 -172 35 -2 2 -14 4 -28 7 -39 7 -162 44
-188 57 -19 9 -21 13 -10 22 7 5 42 44 78 85 36 41 67 77 70 80 3 3 17 21 30
40 13 19 27 37 30 40 3 3 28 39 55 80 45 69 59 91 108 172 31 50 88 153 142
253 45 86 41 82 90 90 22 4 45 8 50 9 6 2 24 6 40 10 275 69 510 190 662 343
40 40 70 73 67 73 -3 0 2 7 10 16 53 53 104 182 109 280 10 156 -70 295 -202
356 -64 30 -181 64 -213 63 -16 -1 -28 2 -28 5 0 9 -231 -3 -280 -15 -14 -3
-39 -8 -56 -10 -17 -3 -50 -11 -73 -20 -23 -8 -43 -15 -46 -15 -48 -7 -262
-119 -309 -162 -11 -10 -23 -18 -28 -18 -4 0 -21 -13 -36 -30 -16 -16 -32 -30
-35 -30 -5 0 -73 -69 -140 -144 -61 -67 -189 -264 -262 -403 -30 -58 -32 -58
-102 -7 -17 13 -35 24 -40 24 -19 0 -136 139 -163 194 -33 68 -42 115 -41 196
3 117 105 251 211 277 95 23 192 -16 215 -86 14 -44 27 -5 28 84 1 105 -52
187 -155 241 -27 13 -48 22 -48 19 0 -3 -9 -1 -21 6 -31 16 -186 19 -249 3z
m1824 -305 c100 -36 110 -206 23 -358 -91 -158 -300 -304 -552 -386 -60 -19
-110 -35 -112 -35 -10 0 236 471 286 545 132 200 245 274 355 234z m-2456
-1584 c47 -8 118 -36 169 -68 99 -62 142 -92 143 -101 0 -19 -231 -216 -255
-216 -3 0 -22 -11 -43 -24 -50 -31 -169 -74 -221 -79 -22 -2 -43 -6 -46 -8
-11 -12 -108 1 -149 19 -138 61 -152 223 -31 347 73 75 162 118 270 131 28 4
52 8 54 10 3 3 52 -2 109 -11z"/>
</g>
</svg>
